<svg width="183" height="183" viewBox="0 0 183 183" fill="none" xmlns="http://www.w3.org/2000/svg">
<rect width="183" height="183" rx="91.5" fill="white"/>
<path d="M105.703 70.2656C105.797 70.2969 105.922 70.3125 106.078 70.3125H107.203C109.641 70.3125 112.094 69.9844 114.562 69.3281C117.031 68.6719 119.266 67.7656 121.266 66.6094C123.266 65.4219 124.891 64.0156 126.141 62.3906C127.391 60.7344 128.016 58.9219 128.016 56.9531C128.016 55.8906 127.781 54.9531 127.312 54.1406C126.844 53.2969 126.188 52.5938 125.344 52.0312C124.531 51.4688 123.531 51.0469 122.344 50.7656C121.188 50.4531 119.906 50.2969 118.5 50.2969C116.031 50.2969 113.625 50.6094 111.281 51.2344C108.938 51.8594 106.734 52.7188 104.672 53.8125C102.609 54.875 100.719 56.1406 99 57.6094C97.2812 59.0469 95.7969 60.625 94.5469 62.3438C93.2969 64.0312 92.3281 65.7969 91.6406 67.6406C90.9531 69.4844 90.6094 71.3281 90.6094 73.1719C90.6094 75.0156 90.9531 76.7656 91.6406 78.4219C93.7969 78.4844 95.8125 78.6406 97.6875 78.8906C99.5625 79.1406 101.188 79.5312 102.562 80.0625C103.938 80.5625 105.016 81.2188 105.797 82.0312C106.578 82.8438 106.969 83.8281 106.969 84.9844C106.969 86.2344 106.5 87.1875 105.562 87.8438C104.625 88.5 103.453 88.8281 102.047 88.8281C100.922 88.8281 99.7656 88.6406 98.5781 88.2656C97.3906 87.8906 96.2344 87.375 95.1094 86.7188C94.0156 86.0312 92.9531 85.2188 91.9219 84.2812C90.9219 83.3125 90.0156 82.25 89.2031 81.0938C85.7344 81.375 82.5156 82.1875 79.5469 83.5312C76.6094 84.8438 74.0625 86.5625 71.9062 88.6875C69.7812 90.7812 68.1094 93.2031 66.8906 95.9531C65.6719 98.6719 65.0625 101.547 65.0625 104.578C65.0625 107.047 65.4688 109.281 66.2812 111.281C67.125 113.25 68.3594 114.938 69.9844 116.344C71.6406 117.75 73.6875 118.828 76.125 119.578C78.5938 120.328 81.4375 120.703 84.6562 120.703C88.2188 120.703 91.5938 120.156 94.7812 119.062C98 118 100.969 116.641 103.688 114.984C106.406 113.328 108.875 111.516 111.094 109.547C113.312 107.547 115.234 105.656 116.859 103.875C118.516 102.094 119.844 100.531 120.844 99.1875C121.844 97.8125 122.5 96.9219 122.812 96.5156L124.5 97.8281C123.781 98.8594 122.812 100.219 121.594 101.906C120.375 103.562 118.891 105.328 117.141 107.203C115.422 109.078 113.422 110.969 111.141 112.875C108.891 114.75 106.359 116.453 103.547 117.984C100.766 119.516 97.7188 120.75 94.4062 121.688C91.0938 122.656 87.5156 123.141 83.6719 123.141C79.4531 123.141 75.8125 122.609 72.75 121.547C69.6875 120.484 67.1406 119.047 65.1094 117.234C63.1094 115.453 61.625 113.391 60.6562 111.047C59.6875 108.672 59.2031 106.172 59.2031 103.547C59.2031 101.703 59.4375 99.8281 59.9062 97.9219C60.375 96.0156 61.0938 94.1562 62.0625 92.3438C63.0312 90.5312 64.2812 88.8125 65.8125 87.1875C67.3438 85.5625 69.1562 84.125 71.25 82.875C73.3438 81.625 75.75 80.6094 78.4688 79.8281C81.1875 79.0469 84.2344 78.5781 87.6094 78.4219C87.0469 77.2969 86.6094 76.125 86.2969 74.9062C85.9844 73.6562 85.8281 72.375 85.8281 71.0625C85.8281 68.6562 86.2344 66.3906 87.0469 64.2656C87.8594 62.1094 88.9688 60.1406 90.375 58.3594C91.8125 56.5469 93.4844 54.9375 95.3906 53.5312C97.3281 52.125 99.3906 50.9375 101.578 49.9688C103.766 48.9688 106.031 48.2188 108.375 47.7188C110.75 47.1875 113.094 46.9219 115.406 46.9219C117.781 46.9219 119.891 47.1719 121.734 47.6719C123.609 48.1406 125.188 48.8125 126.469 49.6875C127.75 50.5625 128.734 51.625 129.422 52.875C130.109 54.0938 130.453 55.4375 130.453 56.9062C130.453 58.5312 130.109 60.0625 129.422 61.5C128.766 62.9375 127.859 64.25 126.703 65.4375C125.578 66.5938 124.25 67.6406 122.719 68.5781C121.219 69.4844 119.609 70.25 117.891 70.875C116.203 71.5 114.453 71.9844 112.641 72.3281C110.828 72.6406 109.078 72.7969 107.391 72.7969C106.828 72.7969 106.375 72.7812 106.031 72.75C105.688 72.7188 105.484 72.7031 105.422 72.7031L105.703 70.2656ZM104.484 84.8906C104.484 84.1406 104.141 83.5312 103.453 83.0625C102.797 82.5625 101.922 82.1719 100.828 81.8906C99.7656 81.6094 98.5469 81.4062 97.1719 81.2812C95.8281 81.125 94.4531 81.0312 93.0469 81C93.6406 81.875 94.2969 82.6562 95.0156 83.3438C95.7656 84 96.5312 84.5625 97.3125 85.0312C98.0938 85.5 98.875 85.8594 99.6562 86.1094C100.469 86.3594 101.234 86.4844 101.953 86.4844C102.797 86.4844 103.422 86.3281 103.828 86.0156C104.266 85.7031 104.484 85.3281 104.484 84.8906Z" fill="#1D1D1D"/>
</svg>
