<svg width="64" height="64" viewBox="0 0 64 64" fill="none" xmlns="http://www.w3.org/2000/svg">
<path d="M4 52.7793C4 56.7675 7.23291 60 11.2207 60H52.7791C56.7675 60 60 56.7671 60 52.7793V11.2209C60 7.23247 56.7671 4 52.7793 4H11.2209C7.23247 4 4 7.23291 4 11.2207V52.7791V52.7793Z" fill="#563D7C"/>
<path d="M26.5393 28.3095V19.2463H34.5171C35.2771 19.2463 36.0096 19.3095 36.7151 19.4363C37.4206 19.5628 38.0448 19.7888 38.5876 20.1145C39.1301 20.4402 39.5643 20.8925 39.8901 21.4713C40.2156 22.0503 40.3786 22.792 40.3786 23.6963C40.3786 25.3245 39.8901 26.5005 38.9131 27.224C37.9363 27.9478 36.6881 28.3095 35.1683 28.3095H26.5393ZM18.0186 12.625V51.375H36.7966C38.5333 51.375 40.2248 51.158 41.8711 50.7238C43.5173 50.2895 44.9826 49.6203 46.2671 48.7158C47.5513 47.8113 48.5736 46.6442 49.3333 45.2152C50.0933 43.786 50.4731 42.0945 50.4731 40.1408C50.4731 37.7165 49.8851 35.6453 48.7093 33.9268C47.5333 32.208 45.7513 31.005 43.3633 30.3175C45.1001 29.4855 46.4118 28.418 47.2983 27.1155C48.1846 25.813 48.6278 24.185 48.6278 22.231C48.6278 20.422 48.3293 18.9025 47.7323 17.6723C47.1353 16.4423 46.2941 15.4563 45.2086 14.7145C44.1233 13.9728 42.8208 13.439 41.3011 13.1135C39.7816 12.7877 38.0991 12.625 36.2538 12.625H18.0186ZM26.5393 44.7537V34.1165H35.8196C37.6648 34.1165 39.1483 34.5415 40.2701 35.392C41.3916 36.2422 41.9526 37.6622 41.9526 39.6522C41.9526 40.6655 41.7806 41.4975 41.4368 42.1488C41.0931 42.8 40.6318 43.3158 40.0528 43.6955C39.4741 44.0755 38.8046 44.3468 38.0448 44.5098C37.2848 44.6722 36.4891 44.7537 35.6568 44.7537H26.5393Z" fill="white"/>
</svg>
