<svg width="64" height="64" viewBox="0 0 64 64" fill="none" xmlns="http://www.w3.org/2000/svg">
<path d="M19.6666 44.7493L22.9999 40.5839L12.2693 31.9999L22.9999 23.4159L19.6666 19.2506L6.33328 29.9173C6.02087 30.1671 5.76866 30.484 5.59534 30.8445C5.42202 31.205 5.33203 31.5999 5.33203 31.9999C5.33203 32.4 5.42202 32.7948 5.59534 33.1554C5.76866 33.5159 6.02087 33.8328 6.33328 34.0826L19.6666 44.7493ZM44.3333 19.2506L40.9999 23.4159L51.7306 31.9999L40.9999 40.5839L44.3333 44.7493L57.6666 34.0826C57.979 33.8328 58.2312 33.5159 58.4045 33.1554C58.5779 32.7948 58.6679 32.4 58.6679 31.9999C58.6679 31.5999 58.5779 31.205 58.4045 30.8445C58.2312 30.484 57.979 30.1671 57.6666 29.9173L44.3333 19.2506Z" fill="black"/>
<path d="M39.936 8.57591L29.2693 56.5759L24.0613 55.4186L34.728 7.41858L39.936 8.57591Z" fill="black"/>
</svg>
