<svg width="64" height="64" viewBox="0 0 64 64" fill="none" xmlns="http://www.w3.org/2000/svg">
<path d="M11.804 54.402L7.31201 4H56.688L52.19 54.394L31.97 60L11.804 54.402Z" fill="#1572B6"/>
<path d="M32 55.7161L48.34 51.1861L52.184 8.12207H32V55.7161Z" fill="#33A9DC"/>
<path d="M32 26.3821H40.18L40.744 20.0521H32V13.8701H47.5L47.352 15.5281L45.834 32.5641H32V26.3821Z" fill="white"/>
<path d="M32.038 42.4358L32.01 42.4438L25.126 40.5838L24.686 35.6538H18.48L19.346 45.3598L32.008 48.8758L32.038 48.8678V42.4358Z" fill="#EBEBEB"/>
<path d="M39.6541 32.3018L38.9101 40.5798L32.0161 42.4398V48.8718L44.6881 45.3598L44.7821 44.3158L45.8561 32.3018H39.6541Z" fill="white"/>
<path d="M32.0221 13.8701V20.0521H17.0901L16.9661 18.6621L16.6841 15.5281L16.5361 13.8701H32.0221Z" fill="#EBEBEB"/>
<path d="M31.9999 26.3818V32.5638H25.2019L25.0779 31.1738L24.7979 28.0398L24.6499 26.3818H31.9999Z" fill="#EBEBEB"/>
</svg>
