<svg width="32" height="37" viewBox="0 0 32 37" fill="none" xmlns="http://www.w3.org/2000/svg">
<g clip-path="url(#clip0)">
<path d="M28.2514 0H3.74875C1.68237 0 0 1.68225 0 3.76688V28.4891C0 30.5737 1.68225 32.256 3.74863 32.256H24.4846L23.5154 28.8731L25.856 31.0491L28.0685 33.0971L32 36.5714V3.76688C32 1.68225 30.3178 0 28.2514 0ZM21.1931 23.8813C21.1931 23.8813 20.5349 23.0949 19.9862 22.4C22.3817 21.7234 23.296 20.224 23.296 20.224C22.5462 20.7178 21.8331 21.0652 21.1931 21.3027C20.2789 21.6869 19.4011 21.9427 18.5417 22.0891C16.7862 22.4182 15.1771 22.3269 13.8057 22.0709C12.7634 21.8696 11.8674 21.5771 11.1178 21.2846C10.6971 21.12 10.24 20.9189 9.78275 20.6629C9.728 20.6262 9.67312 20.608 9.61825 20.5714C9.58175 20.5531 9.56338 20.5349 9.54513 20.5166C9.216 20.3337 9.03312 20.2057 9.03312 20.2057C9.03312 20.2057 9.91087 21.6686 12.2331 22.3634C11.6846 23.0584 11.008 23.8811 11.008 23.8811C6.96675 23.7531 5.43087 21.1017 5.43087 21.1017C5.43087 15.2137 8.064 10.4411 8.064 10.4411C10.6971 8.46625 13.2022 8.52112 13.2022 8.52112L13.3851 8.74063C10.0938 9.69125 8.576 11.136 8.576 11.136C8.576 11.136 8.97825 10.9166 9.65475 10.6058C11.6114 9.74625 13.1657 9.50862 13.8057 9.45375C13.9154 9.43537 14.0069 9.41712 14.1166 9.41712C15.342 9.25749 16.5821 9.24524 17.8104 9.38062C19.5474 9.58175 21.4126 10.0937 23.3143 11.136C23.3143 11.136 21.8698 9.76463 18.7611 8.81375L19.0171 8.52125C19.0171 8.52125 21.5222 8.46625 24.1554 10.4412C24.1554 10.4412 26.7886 15.2137 26.7886 21.1017C26.7886 21.1017 25.2342 23.7531 21.1931 23.8811V23.8813ZM12.6903 15.3418C11.648 15.3418 10.8252 16.256 10.8252 17.3714C10.8252 18.4869 11.6663 19.4011 12.6903 19.4011C13.7326 19.4011 14.5554 18.4869 14.5554 17.3714C14.5738 16.256 13.7326 15.3418 12.6904 15.3418H12.6903ZM19.3646 15.3418C18.3223 15.3418 17.4994 16.256 17.4994 17.3714C17.4994 18.4869 18.3406 19.4011 19.3646 19.4011C20.4069 19.4011 21.2296 18.4869 21.2296 17.3714C21.2296 16.256 20.4069 15.3418 19.3646 15.3418Z" fill="#7289DA"/>
</g>
<defs>
<clipPath id="clip0">
<rect width="32" height="36.625" fill="white"/>
</clipPath>
</defs>
</svg>
