<svg width="32" height="25" viewBox="0 0 32 25" fill="none" xmlns="http://www.w3.org/2000/svg">
<g clip-path="url(#clip0)">
<path d="M29.8542 24.1993H2.01925C0.94 24.1993 0.03125 23.3188 0.03125 22.211V2.10178C0.031125 1.0224 0.9115 0.113525 2.01925 0.113525H29.8542C30.9335 0.113525 31.8425 0.994025 31.8425 2.10178V22.211C31.8425 23.3188 30.962 24.1993 29.8542 24.1993Z" fill="#E3E3E3"/>
<path opacity="0.1" d="M4.00745 24.1993L15.9083 14.6275L15.9936 14.1162L3.72345 5.28296L3.69495 23.7733L4.00745 24.1993V24.1993Z" fill="#231F20"/>
<path d="M2.01925 24.1993C0.911503 24.1993 0.0311279 23.3188 0.0311279 22.2111V2.07335C0.0311279 0.965721 0.911503 0.766846 2.01925 0.766846C3.127 0.766846 4.0075 0.994096 4.0075 2.07335V24.1993H2.01925Z" fill="#D54B3D"/>
<path d="M2.01925 1.05085C3.43937 1.05085 3.7235 1.47697 3.7235 2.07335V23.9153H2.01925C1.082 23.9153 0.315125 23.1485 0.315125 22.2111V2.07335C0.315125 1.44847 0.599125 1.05085 2.01925 1.05085ZM2.01925 0.766846C0.9115 0.766846 0.03125 0.994096 0.03125 2.07335V22.2112C0.03125 23.319 0.911625 24.1995 2.01938 24.1995H4.0075V2.07335C4.0075 0.965721 3.127 0.766846 2.01925 0.766846V0.766846Z" fill="#D72B27"/>
<path d="M29.8542 24.1993H27.866V2.0166C27.866 0.908846 28.7465 0.766846 29.8542 0.766846C30.962 0.766846 31.8425 0.908846 31.8425 2.0166V22.2396C31.8425 23.3188 30.962 24.1993 29.8542 24.1993Z" fill="#D54B3D"/>
<path d="M29.8542 1.05085C31.1323 1.05085 31.5583 1.30647 31.5583 2.0166V22.2396C31.5583 23.1768 30.7915 23.9437 29.8542 23.9437H28.15V2.0166C28.15 1.2781 28.5761 1.05085 29.8542 1.05085ZM29.8542 0.766846C28.7465 0.766846 27.866 0.908846 27.866 2.0166V24.2278H29.8542C30.962 24.2278 31.8425 23.3472 31.8425 22.2396V2.0166C31.8425 0.908846 30.962 0.766846 29.8542 0.766846Z" fill="#D72B27"/>
<path d="M21.3334 24.1993L0.19751 2.89935L1.30926 3.35147L16.022 13.9458L31.8425 2.34497V22.2396C31.8425 23.3188 30.962 24.1993 29.8543 24.1993H21.3334Z" fill="url(#paint0_linear)"/>
<path d="M15.9084 14.6274L0.883142 3.72068C0.00264198 3.06743 -0.252983 1.81768 0.400267 0.937184C1.05377 0.0566844 2.33177 -0.142065 3.24064 0.511184L15.9369 9.74218L28.718 0.397434C29.5985 -0.255816 30.8483 -0.0569406 31.5015 0.851934C32.1548 1.73243 31.956 2.98218 31.047 3.63543L15.9083 14.6273L15.9084 14.6274Z" fill="#D54B3D"/>
<path d="M29.8542 0.284C30.3939 0.284 30.9051 0.539625 31.246 0.994C31.7856 1.761 31.6152 2.81188 30.8767 3.38L15.9084 14.2867L1.05361 3.49362C0.286731 2.9255 0.0878564 1.84613 0.627481 1.10775C0.939981 0.681625 1.47961 0.39775 2.04761 0.39775C2.41686 0.39775 2.78611 0.51125 3.07011 0.7385L15.738 9.941L15.9084 10.0548L16.0787 9.941L28.8317 0.5965C29.1442 0.39775 29.485 0.284 29.8542 0.284V0.284ZM29.8542 0C29.4566 0 29.0305 0.113625 28.6897 0.36925L15.9084 9.71375L3.21211 0.482875C2.87148 0.22725 2.44548 0.113625 2.01936 0.113625C1.39448 0.113625 0.769606 0.397625 0.371981 0.937375C-0.252894 1.81775 0.00273138 3.0675 0.883231 3.72075L15.9085 14.656L31.0187 3.63562C31.8992 2.98237 32.0981 1.761 31.4732 0.852125C31.0756 0.284 30.4791 0 29.8542 0Z" fill="#D72B27"/>
</g>
<defs>
<linearGradient id="paint0_linear" x1="0.198776" y1="13.2717" x2="31.8526" y2="13.2717" gradientUnits="userSpaceOnUse">
<stop stop-opacity="0.1"/>
<stop offset="1" stop-opacity="0.2"/>
</linearGradient>
<clipPath id="clip0">
<rect width="32" height="24.25" fill="white"/>
</clipPath>
</defs>
</svg>
