<svg width="64" height="64" viewBox="0 0 64 64" fill="none" xmlns="http://www.w3.org/2000/svg">
<path d="M11.8041 54.402L7.31006 4H56.6901L52.1901 54.394L31.9701 60L11.8041 54.402Z" fill="#E44F26"/>
<path d="M32 55.7161L48.34 51.1861L52.184 8.12207H32V55.7161Z" fill="#F1662A"/>
<path d="M32 26.8138H23.82L23.256 20.4838H32V14.3018H16.5L16.648 15.9618L18.166 32.9958H32V26.8138Z" fill="#EBEBEB"/>
<path d="M31.9999 42.8679L31.9719 42.8759L25.0879 41.0179L24.6479 36.0879H18.4419L19.3079 45.7919L31.9719 49.3079L31.9999 49.2999V42.8679Z" fill="#EBEBEB"/>
<path d="M31.978 26.814V32.996H39.59L38.874 41.014L31.978 42.874V49.306L44.652 45.792L44.744 44.748L46.196 28.474L46.348 26.814H31.978Z" fill="white"/>
<path d="M31.978 14.3018V20.4838H46.91L47.034 19.0958L47.316 15.9618L47.464 14.3018H31.978Z" fill="white"/>
</svg>
