<svg width="32" height="32" viewBox="0 0 32 32" fill="none" xmlns="http://www.w3.org/2000/svg">
<path d="M15.9986 9.83594C14.3634 9.83594 12.7953 10.4855 11.639 11.6417C10.4828 12.7979 9.83325 14.3661 9.83325 16.0013C9.83325 17.6364 10.4828 19.2046 11.639 20.3608C12.7953 21.517 14.3634 22.1666 15.9986 22.1666C17.6337 22.1666 19.2019 21.517 20.3581 20.3608C21.5144 19.2046 22.1639 17.6364 22.1639 16.0013C22.1639 14.3661 21.5144 12.7979 20.3581 11.6417C19.2019 10.4855 17.6337 9.83594 15.9986 9.83594V9.83594ZM15.9986 20.0053C14.9363 20.0053 13.9175 19.5833 13.1664 18.8321C12.4152 18.081 11.9933 17.0622 11.9933 15.9999C11.9933 14.9377 12.4152 13.9189 13.1664 13.1677C13.9175 12.4166 14.9363 11.9946 15.9986 11.9946C17.0609 11.9946 18.0796 12.4166 18.8308 13.1677C19.5819 13.9189 20.0039 14.9377 20.0039 15.9999C20.0039 17.0622 19.5819 18.081 18.8308 18.8321C18.0796 19.5833 17.0609 20.0053 15.9986 20.0053V20.0053Z" fill="#C13584"/>
<path d="M22.408 11.0465C23.2019 11.0465 23.8454 10.403 23.8454 9.60921C23.8454 8.81539 23.2019 8.17188 22.408 8.17188C21.6142 8.17188 20.9707 8.81539 20.9707 9.60921C20.9707 10.403 21.6142 11.0465 22.408 11.0465Z" fill="#C13584"/>
<path d="M27.3774 8.14792C27.0687 7.35083 26.597 6.62697 25.9925 6.02267C25.3879 5.41837 24.6639 4.94695 23.8667 4.63859C22.9338 4.2884 21.9483 4.09905 20.952 4.07859C19.668 4.02259 19.2614 4.00659 16.0054 4.00659C12.7494 4.00659 12.332 4.00659 11.0587 4.07859C10.0632 4.098 9.07836 4.28739 8.14669 4.63859C7.34927 4.94659 6.62504 5.41789 6.02046 6.02223C5.41589 6.62657 4.94432 7.35062 4.63602 8.14792C4.28576 9.08074 4.09684 10.0664 4.07735 11.0626C4.02002 12.3453 4.00269 12.7519 4.00269 16.0093C4.00269 19.2653 4.00269 19.6799 4.07735 20.9559C4.09735 21.9533 4.28535 22.9373 4.63602 23.8719C4.94519 24.6689 5.41721 25.3927 6.02193 25.997C6.62665 26.6012 7.35077 27.0727 8.14802 27.3813C9.07793 27.7455 10.0632 27.9484 11.0614 27.9813C12.3454 28.0373 12.752 28.0546 16.008 28.0546C19.264 28.0546 19.6814 28.0546 20.9547 27.9813C21.9508 27.961 22.9363 27.7721 23.8694 27.4226C24.6664 27.1135 25.3902 26.6417 25.9946 26.0372C26.5991 25.4328 27.0709 24.7089 27.38 23.9119C27.7307 22.9786 27.9187 21.9946 27.9387 20.9973C27.996 19.7146 28.0134 19.3079 28.0134 16.0506C28.0134 12.7933 28.0134 12.3799 27.9387 11.1039C27.9232 10.0936 27.7333 9.09359 27.3774 8.14792V8.14792ZM25.7534 20.8573C25.7448 21.6257 25.6045 22.3869 25.3387 23.1079C25.1385 23.6264 24.8319 24.0973 24.4388 24.4902C24.0456 24.8831 23.5746 25.1893 23.056 25.3893C22.343 25.6539 21.5898 25.7941 20.8294 25.8039C19.5627 25.8626 19.2054 25.8773 15.9574 25.8773C12.7067 25.8773 12.3747 25.8773 11.084 25.8039C10.3239 25.7946 9.57112 25.6543 8.85869 25.3893C8.33827 25.1906 7.86535 24.8848 7.47054 24.4919C7.07572 24.0989 6.7678 23.6274 6.56669 23.1079C6.30461 22.3947 6.16443 21.6424 6.15202 20.8826C6.09469 19.6159 6.08135 19.2586 6.08135 16.0106C6.08135 12.7613 6.08135 12.4293 6.15202 11.1373C6.16064 10.3693 6.30089 9.60848 6.56669 8.88792C6.97335 7.83592 7.80669 7.00792 8.85869 6.60526C9.57147 6.34144 10.3241 6.20121 11.084 6.19059C12.352 6.13326 12.708 6.11726 15.9574 6.11726C19.2067 6.11726 19.54 6.11726 20.8294 6.19059C21.5899 6.19974 22.3432 6.34002 23.056 6.60526C23.5746 6.80562 24.0455 7.11219 24.4386 7.5053C24.8318 7.8984 25.1383 8.36935 25.3387 8.88792C25.6008 9.60119 25.7409 10.3535 25.7534 11.1133C25.8107 12.3813 25.8254 12.7373 25.8254 15.9866C25.8254 19.2346 25.8254 19.5839 25.768 20.8586H25.7534V20.8573Z" fill="#C13584"/>
</svg>
