<svg width="64" height="64" viewBox="0 0 64 64" fill="none" xmlns="http://www.w3.org/2000/svg">
<path d="M4 4H60V60H4V4Z" fill="#F5DE19"/>
<path d="M41.6181 47.7498C42.0953 48.719 42.8366 49.5336 43.7566 50.0998C44.6766 50.666 45.7379 50.9606 46.8181 50.9498C48.9981 50.9498 50.3921 49.8598 50.3921 48.3498C50.3921 46.5498 48.9601 45.9058 46.5601 44.8558L45.2441 44.2918C41.4441 42.6738 38.9241 40.6478 38.9241 36.3638C38.9241 32.4178 41.9241 29.4118 46.6301 29.4118C48.1536 29.3018 49.6756 29.6427 51.0065 30.3921C52.3374 31.1415 53.4182 32.2662 54.1141 33.6258L50.0001 36.2558C49.7322 35.5816 49.2656 35.0049 48.6623 34.602C48.059 34.1991 47.3475 33.9891 46.6221 33.9998C46.3057 33.9681 45.9861 34.0027 45.6837 34.1014C45.3813 34.2 45.1028 34.3606 44.8659 34.5728C44.629 34.7851 44.439 35.0443 44.3078 35.3341C44.1766 35.6239 44.1073 35.9378 44.1041 36.2558C44.1041 37.8338 45.0821 38.4738 47.3401 39.4558L48.6561 40.0198C53.1281 41.9378 55.6561 43.8918 55.6561 48.2858C55.6561 53.0238 51.9341 55.6198 46.9361 55.6198C44.9887 55.7439 43.0471 55.3018 41.3454 54.3468C39.6437 53.3918 38.2547 51.9647 37.3461 50.2378L41.6181 47.7498ZM23.0281 48.2058C23.8541 49.6718 24.6061 50.9118 26.4141 50.9118C28.1421 50.9118 29.2341 50.2358 29.2341 47.6058V29.7118H34.4961V47.6758C34.4961 53.1238 31.2961 55.6038 26.6381 55.6038C24.9916 55.6938 23.3564 55.2835 21.9475 54.4268C20.5386 53.5701 19.4219 52.3071 18.7441 50.8038L23.0281 48.2058Z" fill="black"/>
</svg>
