<svg width="32" height="32" viewBox="0 0 32 32" fill="none" xmlns="http://www.w3.org/2000/svg">
<path d="M19.4839 7.93701V13.414L21.3999 14.619C21.4691 14.6342 21.5407 14.6342 21.6099 14.619L29.8479 9.06501C29.8419 8.79546 29.7433 8.5362 29.5686 8.33078C29.394 8.12537 29.154 7.98632 28.8889 7.93701H19.4839Z" fill="#0072C6"/>
<path d="M19.4839 15.4568L21.2309 16.6568C21.3127 16.7066 21.4066 16.733 21.5024 16.733C21.5982 16.733 21.6921 16.7066 21.7739 16.6568C21.4739 16.8378 29.8469 11.2788 29.8469 11.2788V21.3448C29.8687 21.5488 29.8457 21.7551 29.7795 21.9492C29.7133 22.1434 29.6055 22.3207 29.4635 22.4688C29.3216 22.6169 29.149 22.7323 28.9579 22.8067C28.7667 22.8811 28.5616 22.9129 28.3569 22.8998H19.4829V15.4568H19.4839Z" fill="#0072C6"/>
<path d="M10.44 12.9322C10.1498 12.9308 9.86454 13.0079 9.61455 13.1555C9.36456 13.303 9.15914 13.5154 9.02005 13.7702C8.64017 14.4456 8.45789 15.2141 8.49405 15.9882C8.45457 16.7606 8.6371 17.5282 9.02005 18.2002C9.15856 18.4445 9.35892 18.648 9.60101 18.7903C9.8431 18.9327 10.1184 19.0088 10.3992 19.011C10.68 19.0132 10.9565 18.9415 11.2008 18.803C11.4451 18.6646 11.6487 18.4642 11.7911 18.2222C12.1698 17.5533 12.3486 16.7897 12.3061 16.0222C12.3494 15.2306 12.1766 14.4421 11.8061 13.7412C11.6736 13.4947 11.4764 13.2891 11.2357 13.1465C10.9949 13.0039 10.7198 12.9298 10.44 12.9322V12.9322Z" fill="#0072C6"/>
<path d="M2.15308 5.155V26.582L18.4531 30V2L2.15308 5.155ZM13.0611 19.491C12.7562 19.9209 12.3507 20.2696 11.8801 20.5068C11.4095 20.744 10.888 20.8626 10.3611 20.852C9.84742 20.8611 9.33916 20.7461 8.87953 20.5166C8.41989 20.2871 8.02247 19.95 7.72108 19.534C7.00626 18.536 6.64868 17.3262 6.70608 16.1C6.64527 14.8136 7.00931 13.543 7.74208 12.484C8.05085 12.0459 8.46265 11.6906 8.94118 11.4492C9.4197 11.2078 9.95026 11.0879 10.4861 11.1C10.996 11.0898 11.5007 11.2049 11.9557 11.4352C12.4108 11.6655 12.8024 12.004 13.0961 12.421C13.8037 13.4406 14.1552 14.6653 14.0961 15.905C14.1584 17.182 13.7943 18.4436 13.0611 19.491Z" fill="#0072C6"/>
</svg>
