<svg width="64" height="64" viewBox="0 0 64 64" fill="none" xmlns="http://www.w3.org/2000/svg">
<path d="M57.8193 6.43309C54.3828 2.99659 50.4622 1.34546 49.0624 2.74521L39.5974 12.2102L52.0422 24.655L61.5072 15.19C62.9069 13.7902 61.2558 9.86971 57.8193 6.43309Z" fill="#FF6E83"/>
<path d="M51.8196 12.4327C47.8987 8.51183 43.4257 6.62808 41.8287 8.22508L32.1362 17.9176L46.3347 32.1162L56.0272 22.4237C57.6242 20.8267 55.7405 16.3536 51.8196 12.4327V12.4327Z" fill="#BFBCAF"/>
<path d="M14.4431 56.2476L5.90628 59.9606C5.28503 60.2308 4.56228 59.9462 4.29215 59.325C4.22537 59.1705 4.19092 59.004 4.19092 58.8357C4.19092 58.6674 4.22537 58.5009 4.29215 58.3465L8.00528 49.8096C9.08302 47.3317 11.9654 46.1967 14.4433 47.2745C16.9211 48.3522 18.0561 51.2346 16.9784 53.7125C16.4656 54.8911 15.5346 55.7702 14.4431 56.2476V56.2476Z" fill="#2B2622"/>
<path d="M50.427 27.9945C50.4361 27.9815 50.4454 27.9685 50.454 27.9551C51.6854 26.1905 49.8011 21.9427 46.0555 18.1971C42.3098 14.4514 38.0619 12.5672 36.2974 13.7987C36.2843 13.8072 36.2714 13.8163 36.2585 13.8253C36.2426 13.8371 36.2261 13.8482 36.2106 13.8605C36.1671 13.894 36.1246 13.9294 36.0848 13.9692L36.0646 13.9894H36.0645V13.9895L13.5596 36.4943C13.5596 36.4943 7.18738 52.2633 9.58838 54.6642C11.9894 57.0651 27.7583 50.693 27.7583 50.693L50.2833 28.168C50.3231 28.1281 50.3586 28.0856 50.3921 28.042C50.4043 28.0266 50.4153 28.0102 50.427 27.9945Z" fill="#FFD469"/>
<path d="M13.5596 36.4941L13.0593 39.6116C12.9857 40.0701 13.3828 40.466 13.8411 40.3913L16.0752 40.0264C16.5165 39.9544 16.9061 40.32 16.8622 40.7649L16.6135 43.2866C16.5699 43.7294 16.9556 44.0943 17.3951 44.026L19.653 43.6758C20.1146 43.6041 20.5096 44.0083 20.4274 44.4681L20.0411 46.6284C19.9616 47.0733 20.3297 47.4708 20.7794 47.4254L23.3206 47.1691C23.7494 47.1259 24.1099 47.4869 24.066 47.9155L23.804 50.4793C23.7589 50.9204 24.141 51.2861 24.5797 51.2219L27.8136 50.7481L9.5886 58.3743C11.0425 56.9204 7.27797 53.1558 5.82397 54.6096L13.5596 36.4941V36.4941Z" fill="#E5AA6E"/>
<path d="M18.2364 37.3177C18.0685 37.3177 17.9044 37.2679 17.7649 37.1747C17.6253 37.0814 17.5165 36.9489 17.4523 36.7938C17.3881 36.6387 17.3713 36.468 17.404 36.3034C17.4367 36.1388 17.5176 35.9876 17.6363 35.8689L36.4308 17.0744C36.59 16.9156 36.8058 16.8265 37.0307 16.8267C37.2556 16.8268 37.4712 16.9163 37.6302 17.0753C37.7892 17.2343 37.8786 17.4499 37.8788 17.6748C37.8789 17.8997 37.7898 18.1155 37.631 18.2747L18.8365 37.0691C18.7578 37.1481 18.6643 37.2107 18.5613 37.2533C18.4583 37.296 18.3479 37.3179 18.2364 37.3177V37.3177ZM23.6378 41.8704L42.4321 23.0759C42.5111 22.9971 42.5738 22.9035 42.6166 22.8005C42.6595 22.6975 42.6815 22.587 42.6816 22.4755C42.6817 22.3639 42.6598 22.2534 42.6172 22.1503C42.5745 22.0472 42.5119 21.9536 42.4331 21.8747C42.3542 21.7958 42.2605 21.7332 42.1574 21.6906C42.0544 21.6479 41.9439 21.626 41.8323 21.626C41.7207 21.6261 41.6103 21.6482 41.5073 21.691C41.4042 21.7338 41.3107 21.7965 41.2319 21.8755L22.4374 40.6701C22.2786 40.8294 22.1895 41.0451 22.1897 41.27C22.1899 41.4949 22.2793 41.7105 22.4383 41.8695C22.5973 42.0286 22.813 42.118 23.0379 42.1181C23.2628 42.1183 23.4785 42.0292 23.6378 41.8704V41.8704ZM28.439 46.6715L47.2334 27.8771C47.3124 27.7983 47.3751 27.7048 47.4179 27.6017C47.4607 27.4987 47.4828 27.3883 47.4829 27.2767C47.483 27.1651 47.4611 27.0547 47.4184 26.9516C47.3758 26.8485 47.3132 26.7548 47.2343 26.6759C47.1554 26.597 47.0618 26.5345 46.9587 26.4918C46.8556 26.4491 46.7451 26.4272 46.6336 26.4273C46.522 26.4274 46.4115 26.4494 46.3085 26.4922C46.2055 26.535 46.1119 26.5977 46.0331 26.6767L27.2386 45.4712C27.0799 45.6305 26.9908 45.8463 26.9909 46.0711C26.9911 46.296 27.0805 46.5117 27.2396 46.6707C27.3986 46.8297 27.6142 46.9191 27.8391 46.9192C28.064 46.9194 28.2798 46.8303 28.439 46.6715V46.6715Z" fill="#FFB636"/>
</svg>
