<svg width="64" height="64" viewBox="0 0 64 64" fill="none" xmlns="http://www.w3.org/2000/svg">
<path d="M28.972 40.7619C29.1304 42.849 29.0997 44.9462 28.88 47.0279C28.8708 47.3204 28.7848 47.6054 28.6307 47.8543C28.4766 48.1032 28.2598 48.3072 28.002 48.4459C26.34 49.6799 20.77 49.9759 20.076 47.3539C19.82 47.3439 20.024 46.4959 19.78 46.5279C19.2928 46.4878 18.8218 46.334 18.405 46.0786C17.9881 45.8233 17.637 45.4737 17.38 45.0579C17.39 42.1899 17.706 31.8439 12.58 34.6299C11.4661 35.2507 10.6307 36.2727 10.244 37.4879C9.89862 38.548 9.7363 39.6592 9.76401 40.7739C9.72401 42.2019 10.08 43.7639 10.132 45.4779C10.152 46.2439 10.274 46.4379 9.70401 47.0899C8.78601 48.1399 7.18401 47.2539 6.31801 46.0999C5.95177 45.5186 5.75058 44.8487 5.73601 44.1619C5.04725 36.6701 5.72492 29.1155 7.73601 21.8659C8.47001 19.4059 8.72601 19.0499 11.062 18.4979C13.72 17.9132 16.4536 17.7512 19.162 18.0179C21.264 17.3339 26.252 13.6299 28.404 16.5699C31.6693 15.8449 35.0467 15.7811 38.337 16.3822C41.6273 16.9833 44.764 18.2372 47.562 20.0699C50.396 20.2844 53.2401 20.3358 56.08 20.2239C56.48 19.9679 56.948 19.6939 57.356 19.4579C57.6555 19.2551 57.9918 19.113 58.346 19.0399C58.806 18.9679 59.406 18.9479 59.546 19.5199C59.6678 20.1069 59.7088 20.7077 59.668 21.3059C59.6541 21.6664 59.52 22.012 59.2869 22.2874C59.0538 22.5629 58.7353 22.7524 58.382 22.8259C57.5836 22.6948 56.8095 22.444 56.086 22.0819C53.486 22.1539 51.886 22.0099 49.286 22.0819C49.704 22.5299 49.686 22.8259 49.99 23.4179C50.7373 25.3844 50.9868 27.5052 50.7164 29.5915C50.4459 31.6777 49.6639 33.6648 48.44 35.3759C48.256 38.3559 48.48 41.3659 48.502 44.3559C48.512 45.3859 48.584 46.3659 47.614 47.0499C46.7585 47.5628 45.7968 47.8727 44.8028 47.9559C43.8088 48.0391 42.8089 47.8934 41.88 47.5299C41.3737 47.2393 40.9217 46.863 40.544 46.4179C40.2119 46.4543 39.8773 46.461 39.544 46.4379C38.9774 46.2794 38.4877 45.9205 38.166 45.4279C37.9816 45.0909 37.8245 44.7398 37.696 44.3779C37.696 42.9779 37.644 42.4299 37.644 41.0319C34.7606 41.5479 31.8019 41.4649 28.952 40.7879L28.972 40.7619Z" fill="#CCCCCC"/>
<path d="M24.1901 49.6782C23.364 49.6905 22.5416 49.5662 21.7561 49.3102C21.32 49.1931 20.9173 48.976 20.5798 48.676C20.2424 48.3761 19.9795 48.0015 19.8121 47.5822C19.6663 47.4006 19.5949 47.1705 19.6121 46.9382V46.8482C19.1038 46.772 18.6176 46.5878 18.1864 46.308C17.7552 46.0283 17.3889 45.6594 17.1121 45.2262L17.0641 45.1482V44.6282C17.0821 42.2642 17.1281 35.9822 14.9961 34.7042C14.6373 34.5299 14.2378 34.4564 13.8404 34.4916C13.443 34.5268 13.0627 34.6695 12.7401 34.9042C11.6893 35.4897 10.9022 36.455 10.5401 37.6022C10.2104 38.6277 10.0562 39.7014 10.0841 40.7782C10.0842 41.5812 10.141 42.3832 10.2541 43.1782C10.3401 43.9102 10.4281 44.6702 10.4541 45.4682C10.4541 45.5862 10.4541 45.6882 10.4681 45.7802C10.5136 46.0568 10.49 46.3404 10.3992 46.6056C10.3085 46.8708 10.1535 47.1095 9.94811 47.3002C9.78567 47.4921 9.58115 47.6438 9.35047 47.7437C9.11979 47.8436 8.86917 47.889 8.61811 47.8762C8.10559 47.8054 7.61364 47.6278 7.17405 47.355C6.73446 47.0821 6.35701 46.7201 6.06611 46.2922C5.65593 45.6656 5.43256 44.9351 5.42211 44.1862C4.72449 36.6551 5.40769 29.0599 7.43811 21.7742C8.18811 19.2642 8.51811 18.7742 10.9961 18.1882C13.6658 17.6007 16.4109 17.434 19.1321 17.6942C19.7303 17.4613 20.3146 17.1942 20.8821 16.8942C23.3461 15.6622 26.7021 13.9882 28.5441 16.2262C31.8089 15.5217 35.1809 15.4715 38.4652 16.0784C41.7494 16.6853 44.8808 17.9374 47.6781 19.7622C50.447 19.9704 53.2257 20.0185 56.0001 19.9062C56.4001 19.6602 56.8241 19.4042 57.2121 19.1802L57.3241 19.1162C57.624 18.9193 57.9597 18.7834 58.3121 18.7162C59.2001 18.5782 59.7121 18.8222 59.8661 19.4382C59.9944 20.0554 60.0381 20.6872 59.9961 21.3162C59.976 21.7532 59.8088 22.1706 59.5216 22.5007C59.2345 22.8307 58.8442 23.0539 58.4141 23.1342H58.3621L58.3121 23.1202C58.1395 23.0761 57.9661 23.0347 57.7921 22.9962C57.1681 22.8894 56.5638 22.6884 56.0001 22.4002C54.7341 22.4322 53.6901 22.4142 52.6821 22.4002C51.8161 22.3862 50.9261 22.3702 49.8941 22.3862C49.9581 22.5122 50.0041 22.6342 50.0541 22.7582C50.119 22.933 50.1938 23.1039 50.2781 23.2702C51.054 25.2796 51.321 27.4497 51.0555 29.5873C50.79 31.7249 50.0001 33.7637 48.7561 35.5222C48.6441 37.4542 48.7021 39.4362 48.7561 41.3542C48.7861 42.3362 48.8161 43.3542 48.8221 44.3542V44.5262C48.9184 45.04 48.8739 45.5702 48.6933 46.0607C48.5126 46.5512 48.2026 46.9837 47.7961 47.3122C46.8977 47.8592 45.8846 48.1903 44.8366 48.2795C43.7885 48.3687 42.734 48.2135 41.7561 47.8262C41.3256 47.6131 40.942 47.3159 40.6281 46.9522C40.5581 46.8802 40.4881 46.8082 40.4161 46.7402C40.3181 46.7402 40.2161 46.7522 40.1261 46.7622C39.9071 46.7967 39.6837 46.7926 39.4661 46.7502C38.8228 46.5722 38.2662 46.1663 37.9001 45.6082C37.7594 45.3812 37.6446 45.139 37.5581 44.8862C37.5112 44.7594 37.4605 44.634 37.4061 44.5102L37.3781 44.4482V44.3802C37.3781 43.6862 37.3661 43.1922 37.3521 42.7162C37.3421 42.3162 37.3321 41.9162 37.3281 41.3982C34.6732 41.835 31.9601 41.7726 29.3281 41.2142C29.4483 43.1684 29.4049 45.1293 29.1981 47.0762C29.1831 47.4098 29.0834 47.7341 28.9085 48.0186C28.7335 48.303 28.4891 48.5383 28.1981 48.7022C26.9797 49.396 25.5911 49.7341 24.1901 49.6782V49.6782ZM20.2521 47.0422H20.3241L20.3841 47.2702C20.5051 47.6237 20.7136 47.9408 20.9902 48.1919C21.2669 48.443 21.6026 48.6199 21.9661 48.7062C23.9076 49.2981 26.003 49.1124 27.8101 48.1882C28.0322 48.075 28.2194 47.9036 28.3515 47.6922C28.4836 47.4808 28.5557 47.2375 28.5601 46.9882C28.7691 45.0111 28.8059 43.0197 28.6701 41.0362L28.5001 40.9882L29.2001 39.6002L29.2821 40.5262C32.0229 41.1323 34.8562 41.1921 37.6201 40.7022L37.9821 40.6542V41.0182C37.9821 41.7122 37.9941 42.2062 38.0081 42.6822C38.0221 43.1582 38.0321 43.6282 38.0341 44.2962C38.0841 44.4142 38.1281 44.5282 38.1721 44.6382C38.2427 44.8477 38.336 45.0489 38.4501 45.2382C38.7302 45.6673 39.1567 45.98 39.6501 46.1182C39.7933 46.1397 39.9389 46.1397 40.0821 46.1182C40.244 46.099 40.4071 46.0903 40.5701 46.0922H40.6901L40.7781 46.1742C40.8861 46.2742 40.9941 46.3842 41.1021 46.4942C41.3588 46.7951 41.6712 47.0437 42.0221 47.2262C42.9007 47.569 43.846 47.7068 44.7859 47.6292C45.7258 47.5516 46.6356 47.2605 47.4461 46.7782C48.2221 46.2302 48.2121 45.4782 48.2001 44.5242V44.3502C48.2001 43.3502 48.1641 42.3502 48.1341 41.3662C48.0761 39.3922 48.0161 37.3502 48.1341 35.3482V35.2162L48.2341 35.1282C49.4131 33.47 50.1649 31.5466 50.4227 29.5284C50.6805 27.5102 50.4364 25.4595 49.7121 23.5582C49.6173 23.3718 49.5331 23.1802 49.4601 22.9842C49.3796 22.7268 49.243 22.4904 49.0601 22.2922L48.5781 21.7742L49.2841 21.7542C50.5921 21.7182 51.6601 21.7362 52.6961 21.7542C53.7321 21.7722 54.7861 21.7902 56.0781 21.7542H56.1721L56.2521 21.8042C56.7735 22.0867 57.3376 22.282 57.9221 22.3822C58.0861 22.4202 58.2481 22.4562 58.4061 22.4962C58.6691 22.4144 58.9006 22.2537 59.0692 22.0358C59.2377 21.8179 59.3351 21.5534 59.3481 21.2782C59.3863 20.7109 59.3473 20.141 59.2321 19.5842C59.2041 19.4622 59.1501 19.2322 58.4001 19.3502C58.1259 19.4041 57.8649 19.5115 57.6321 19.6662L57.5201 19.7302C57.1201 19.9582 56.6621 20.2362 56.2581 20.4882L56.1841 20.5342H56.0981C53.2456 20.651 50.3886 20.5996 47.5421 20.3802H47.4581L47.3881 20.3322C44.6253 18.5206 41.527 17.2818 38.2768 16.6892C35.0266 16.0966 31.6905 16.1622 28.4661 16.8822L28.2661 16.9182L28.1481 16.7582C26.6541 14.7182 23.4801 16.3042 21.1621 17.4622C20.5484 17.7905 19.9137 18.0778 19.2621 18.3222L19.1981 18.3422H19.1321C16.4572 18.0783 13.7574 18.2376 11.1321 18.8142C8.89011 19.3422 8.73211 19.6142 8.03811 21.9622C6.02723 29.1722 5.34946 36.6888 6.03811 44.1422C6.0424 44.7681 6.22109 45.3803 6.55411 45.9102C6.78955 46.2613 7.09426 46.5605 7.44954 46.7896C7.80481 47.0187 8.20316 47.1727 8.62011 47.2422C8.77619 47.2513 8.93222 47.2236 9.07567 47.1614C9.21913 47.0992 9.346 47.0043 9.44611 46.8842C9.59655 46.7557 9.7097 46.5892 9.77374 46.402C9.83777 46.2149 9.85033 46.0139 9.81011 45.8202C9.81011 45.7222 9.79811 45.6202 9.79611 45.4922C9.76553 44.7441 9.69878 43.9979 9.59611 43.2562C9.47913 42.4327 9.42099 41.602 9.42211 40.7702C9.39286 39.6165 9.56268 38.4663 9.92411 37.3702C10.34 36.0871 11.226 35.0089 12.4041 34.3522C12.8216 34.0589 13.3113 33.8853 13.8203 33.85C14.3292 33.8148 14.8382 33.9193 15.2921 34.1522C17.7381 35.6182 17.6921 41.9322 17.6721 44.6282V44.9622C17.901 45.3092 18.2042 45.6008 18.5599 45.816C18.9155 46.0312 19.3146 46.1645 19.7281 46.2062C19.7816 46.2003 19.8357 46.2052 19.8873 46.2206C19.9388 46.2361 19.9867 46.2618 20.0281 46.2962C20.1005 46.3774 20.1555 46.4724 20.1899 46.5756C20.2243 46.6788 20.2373 46.7879 20.2281 46.8962C20.2461 46.9422 20.2481 47.0002 20.2521 47.0422V47.0422Z" fill="#CCCCCC"/>
<path d="M27.7821 39.9621C27.9405 42.0492 27.9097 44.1464 27.6901 46.2281C27.6808 46.5206 27.5949 46.8056 27.4408 47.0545C27.2867 47.3034 27.0699 47.5074 26.8121 47.6461C25.1501 48.8801 19.5801 49.1761 18.8861 46.5541C18.6301 46.5441 18.8341 45.6961 18.5901 45.7281C18.1029 45.688 17.6319 45.5342 17.215 45.2788C16.7982 45.0235 16.4471 44.6739 16.1901 44.2581C16.2001 41.3901 16.5161 31.0441 11.3901 33.8301C10.2762 34.4509 9.4408 35.4729 9.05407 36.6881C8.70868 37.7482 8.54636 38.8594 8.57407 39.9741C8.53407 41.4021 8.89007 42.9641 8.94207 44.6781C8.96207 45.4441 9.08407 45.6381 8.51407 46.2901C7.59607 47.3401 5.99407 46.4541 5.12807 45.3001C4.76183 44.7188 4.56064 44.0489 4.54607 43.3621C3.85731 35.8703 4.53498 28.3157 6.54607 21.0661C7.28007 18.6061 7.53607 18.2501 9.87207 17.6981C12.5301 17.1134 15.2636 16.9514 17.9721 17.2181C20.0741 16.5341 25.0621 12.8301 27.2141 15.7701C30.4793 15.0451 33.8567 14.9813 37.1471 15.5824C40.4374 16.1835 43.5741 17.4374 46.3721 19.2701C49.2061 19.4846 52.0501 19.536 54.8901 19.4241C55.2901 19.1681 55.7581 18.8941 56.1661 18.6581C56.4655 18.4552 56.8019 18.3132 57.1561 18.2401C57.6161 18.1681 58.2161 18.1481 58.3561 18.7201C58.4779 19.3071 58.5189 19.9079 58.4781 20.5061C58.4642 20.8666 58.33 21.2122 58.097 21.4876C57.8639 21.7631 57.5453 21.9526 57.1921 22.0261C56.3937 21.895 55.6196 21.6442 54.8961 21.2821C52.2961 21.3541 50.6961 21.2101 48.0961 21.2821C48.5141 21.7301 48.4961 22.0261 48.8001 22.6181C49.5473 24.5846 49.7968 26.7054 49.5264 28.7917C49.256 30.8779 48.474 32.865 47.2501 34.5761C47.0661 37.5561 47.2901 40.5661 47.3121 43.5561C47.3221 44.5861 47.3941 45.5661 46.4241 46.2501C45.5685 46.763 44.6068 47.0729 43.6128 47.1561C42.6188 47.2393 41.619 47.0936 40.6901 46.7301C40.1838 46.4395 39.7317 46.0632 39.3541 45.6181C39.022 45.6545 38.6873 45.6612 38.3541 45.6381C37.7875 45.4796 37.2977 45.1207 36.9761 44.6281C36.7917 44.2911 36.6345 43.94 36.5061 43.5781C36.5061 42.1781 36.4541 41.6301 36.4541 40.2321C33.5707 40.7481 30.6119 40.6651 27.7621 39.9881L27.7821 39.9621Z" fill="#373435"/>
<path d="M22.9998 48.8778C22.1738 48.8901 21.3513 48.7658 20.5658 48.5098C20.1298 48.3928 19.727 48.1756 19.3895 47.8756C19.0521 47.5757 18.7892 47.2012 18.6218 46.7818C18.476 46.6002 18.4046 46.3701 18.4218 46.1378V46.0478C17.9135 45.9716 17.4273 45.7874 16.9961 45.5077C16.5649 45.2279 16.1986 44.859 15.9218 44.4258L15.8738 44.3478V43.8278C15.8918 41.4638 15.9378 35.1818 13.8058 33.9038C13.447 33.7295 13.0475 33.656 12.6501 33.6912C12.2527 33.7265 11.8724 33.8691 11.5498 34.1038C10.499 34.6894 9.71187 35.6546 9.34982 36.8018C9.02009 37.8273 8.86592 38.901 8.89382 39.9778C8.89388 40.7808 8.95069 41.5828 9.06382 42.3778C9.14982 43.1118 9.23782 43.8698 9.26382 44.6698C9.26382 44.7878 9.26382 44.8898 9.27782 44.9818C9.32335 45.2584 9.29969 45.542 9.20895 45.8072C9.11821 46.0724 8.96323 46.3111 8.75782 46.5018C8.59548 46.6938 8.39097 46.8457 8.16027 46.9456C7.92957 47.0455 7.6789 47.0908 7.42782 47.0778C6.9153 47.007 6.42335 46.8294 5.98376 46.5566C5.54417 46.2837 5.16672 45.9217 4.87582 45.4938C4.46574 44.8671 4.24238 44.1367 4.23182 43.3878C3.53395 35.8561 4.21716 28.2602 6.24782 20.9738C6.99782 18.4638 7.32782 17.9738 9.80582 17.3878C12.4755 16.8002 15.2206 16.6335 17.9418 16.8938C18.54 16.6609 19.1243 16.3938 19.6918 16.0938C22.1558 14.8618 25.5118 13.1858 27.3538 15.4258C30.6187 14.7217 33.9908 14.6719 37.275 15.2791C40.5593 15.8864 43.6906 17.1388 46.4878 18.9638C49.2533 19.173 52.0286 19.2225 54.7998 19.1118C55.1898 18.8698 55.6258 18.6078 56.0118 18.3858L56.1238 18.3218C56.4237 18.1249 56.7594 17.989 57.1118 17.9218C57.9998 17.7838 58.5118 18.0278 58.6658 18.6438C58.7941 19.261 58.8378 19.8928 58.7958 20.5218C58.7757 20.9588 58.6085 21.3762 58.3214 21.7063C58.0342 22.0363 57.6439 22.2596 57.2138 22.3398H57.1618L57.1118 22.3258C56.9392 22.2817 56.7658 22.2404 56.5918 22.2018C55.9724 22.0924 55.3729 21.8901 54.8138 21.6018C53.5478 21.6338 52.5038 21.6158 51.4958 21.6018C50.6298 21.5878 49.7398 21.5718 48.7078 21.5878C48.7718 21.7138 48.8178 21.8358 48.8678 21.9598C48.9328 22.1346 49.0075 22.3055 49.0918 22.4718C49.8675 24.4813 50.1345 26.6513 49.8689 28.7889C49.6034 30.9265 48.8136 32.9652 47.5698 34.7238C47.4578 36.6558 47.5158 38.6378 47.5698 40.5538C47.5978 41.5378 47.6278 42.5538 47.6358 43.5538V43.7258C47.7324 44.2394 47.6882 44.7695 47.5079 45.26C47.3276 45.7505 47.018 46.183 46.6118 46.5118C45.7134 47.0588 44.7003 47.3899 43.6523 47.4791C42.6042 47.5683 41.5498 47.4131 40.5718 47.0258C40.1413 46.8127 39.7577 46.5155 39.4438 46.1518C39.3738 46.0798 39.3038 46.0078 39.2318 45.9398C39.1338 45.9398 39.0318 45.9518 38.9418 45.9618C38.7228 45.9964 38.4994 45.9923 38.2818 45.9498C37.6385 45.7718 37.0819 45.3659 36.7158 44.8078C36.5749 44.5808 36.4602 44.3386 36.3738 44.0858C36.3269 43.959 36.2762 43.8336 36.2218 43.7098L36.1938 43.6478V43.5798C36.1938 42.8858 36.1818 42.3918 36.1678 41.9158C36.1578 41.5158 36.1458 41.1158 36.1438 40.5978C33.4889 41.0345 30.7758 40.9721 28.1438 40.4138C28.259 42.3664 28.2108 44.3253 27.9998 46.2698C27.9848 46.6034 27.8851 46.9277 27.7102 47.2122C27.5352 47.4966 27.2908 47.7319 26.9998 47.8958C25.7843 48.5902 24.3987 48.9304 22.9998 48.8778V48.8778ZM19.0618 46.2418H19.1338L19.1938 46.4698C19.3148 46.8233 19.5233 47.1404 19.7999 47.3915C20.0766 47.6426 20.4123 47.8195 20.7758 47.9058C22.7172 48.4979 24.8128 48.3122 26.6198 47.3878C26.8419 47.2747 27.0291 47.1032 27.1612 46.8918C27.2933 46.6804 27.3654 46.4371 27.3698 46.1878C27.5788 44.2108 27.6156 42.2193 27.4798 40.2358L27.3098 40.1878L27.9998 38.8098L28.0818 39.7358C30.8226 40.3418 33.6559 40.4016 36.4198 39.9118L36.7818 39.8638V40.2278C36.7818 40.9218 36.7938 41.4158 36.8078 41.8918C36.8218 42.3678 36.8318 42.8378 36.8338 43.5058C36.8838 43.6238 36.9278 43.7378 36.9718 43.8498C37.0423 44.0594 37.1355 44.2606 37.2498 44.4498C37.5299 44.8789 37.9564 45.1916 38.4498 45.3298C38.593 45.3515 38.7386 45.3515 38.8818 45.3298C39.0438 45.3106 39.2068 45.302 39.3698 45.3038H39.4898L39.5778 45.3858C39.6858 45.4858 39.7938 45.5858 39.9018 45.7058C40.1586 46.0067 40.471 46.2552 40.8218 46.4378C41.7004 46.7806 42.6457 46.9184 43.5856 46.8408C44.5255 46.7632 45.4353 46.4721 46.2458 45.9898C47.0218 45.4418 47.0118 44.6898 46.9998 43.7358V43.5618C46.9998 42.5618 46.9638 41.5618 46.9338 40.5758C46.8758 38.6018 46.8158 36.5618 46.9338 34.5598V34.4278L47.0338 34.3398C48.2127 32.6816 48.9643 30.7581 49.2221 28.74C49.4799 26.7218 49.236 24.6712 48.5118 22.7698C48.417 22.5834 48.3329 22.3918 48.2598 22.1958C48.1793 21.9384 48.0427 21.702 47.8598 21.5038L47.3778 20.9858L48.0838 20.9658C49.3918 20.9298 50.4598 20.9478 51.4958 20.9658C52.5318 20.9838 53.5858 21.0018 54.8778 20.9658H54.9718L55.0518 21.0158C55.5732 21.2984 56.1373 21.4936 56.7218 21.5938C56.8858 21.6318 57.0478 21.6678 57.2058 21.7078C57.4689 21.626 57.7004 21.4653 57.8689 21.2474C58.0374 21.0295 58.1348 20.765 58.1478 20.4898C58.1859 19.9225 58.1469 19.3527 58.0318 18.7958C58.0038 18.6738 57.9498 18.4458 57.1998 18.5618C56.9256 18.6157 56.6646 18.7231 56.4318 18.8778L56.3178 18.9418C55.9178 19.1718 55.4558 19.4498 55.0558 19.6998L54.9998 19.7398H54.9138C52.0613 19.8565 49.2043 19.8051 46.3578 19.5858H46.2738L46.1998 19.5338C43.437 17.7222 40.3387 16.4834 37.0885 15.8908C33.8383 15.2982 30.5022 15.3639 27.2778 16.0838L27.0778 16.1198L26.9598 15.9598C25.4658 13.9198 22.2918 15.5058 19.9738 16.6638C19.3601 16.9921 18.7254 17.2794 18.0738 17.5238L18.0098 17.5438H17.9438C15.2689 17.2798 12.5691 17.4391 9.94382 18.0158C7.70182 18.5438 7.54382 18.8158 6.84982 21.1638C4.83894 28.3738 4.16116 35.8904 4.84982 43.3438C4.85411 43.9697 5.0328 44.5819 5.36582 45.1118C5.60126 45.4629 5.90597 45.7622 6.26125 45.9912C6.61652 46.2203 7.01487 46.3743 7.43182 46.4438C7.58803 46.454 7.74443 46.4269 7.88806 46.3646C8.0317 46.3024 8.15845 46.2068 8.25782 46.0858C8.40826 45.9574 8.52141 45.7908 8.58545 45.6037C8.64948 45.4165 8.66204 45.2155 8.62182 45.0218C8.62182 44.9238 8.60982 44.8218 8.60782 44.6938C8.57724 43.9457 8.51049 43.1995 8.40782 42.4578C8.29077 41.6344 8.23262 40.8036 8.23382 39.9718C8.20457 38.8181 8.37439 37.6679 8.73582 36.5718C9.15167 35.2887 10.0377 34.2105 11.2158 33.5538C11.6333 33.2605 12.123 33.0869 12.632 33.0516C13.141 33.0164 13.6499 33.1209 14.1038 33.3538C16.5498 34.8198 16.5038 41.1338 16.4838 43.8298V44.1638C16.7156 44.5118 17.0224 44.8034 17.3816 45.0173C17.7409 45.2312 18.1435 45.3619 18.5598 45.3998C18.6133 45.3939 18.6674 45.3988 18.719 45.4143C18.7705 45.4297 18.8184 45.4554 18.8598 45.4898C18.9322 45.571 18.9872 45.6661 19.0216 45.7692C19.056 45.8724 19.069 45.9815 19.0598 46.0898C19.0564 46.1405 19.0571 46.1913 19.0618 46.2418V46.2418Z" fill="#373435"/>
<path d="M37.1441 39.8922C37.7859 39.8303 38.4198 39.7036 39.0361 39.5142C39.3456 41.3294 39.4376 43.1751 39.3101 45.0122C38.8431 45.0416 38.3779 44.9312 37.9739 44.695C37.5699 44.4588 37.2455 44.1076 37.0421 43.6862C36.9388 42.4215 36.973 41.1494 37.1441 39.8922V39.8922Z" fill="#6978AB"/>
<path d="M39.2442 45.332C38.7296 45.3495 38.2209 45.2173 37.78 44.9514C37.3391 44.6855 36.9848 44.2973 36.7602 43.834L36.7302 43.778V43.714C36.6257 42.426 36.6606 41.1305 36.8342 39.85L36.8662 39.602L37.1142 39.574C37.7347 39.5137 38.3477 39.3917 38.9442 39.21L39.2722 39.104L39.3522 39.44C39.653 41.0777 39.7518 42.7462 39.6462 44.408L39.6302 45.326H39.3222L39.2442 45.332ZM37.3562 43.592C37.5124 43.9 37.7458 44.1623 38.0336 44.3533C38.3213 44.5443 38.6537 44.6576 38.9982 44.682V44.394C39.0842 42.8991 39.0172 41.3993 38.7982 39.918C38.3494 40.036 37.8929 40.1229 37.4322 40.178C37.2926 41.3133 37.2664 42.4596 37.3542 43.6L37.3562 43.592Z" fill="#373435"/>
<path d="M8.10394 45.366C7.65394 42.418 7.19594 37.216 9.30394 34.736C9.47076 34.5112 9.65109 34.2968 9.84394 34.094C13.1699 30.962 16.0679 33.656 16.8539 37.124C17.0205 39.3166 17.0546 41.5173 16.9559 43.714C17.1524 44.0961 17.4557 44.4129 17.8288 44.626C18.202 44.839 18.629 44.9391 19.0579 44.914C19.3639 45.546 19.2819 46.016 19.6299 46.434C20.2905 47.1754 21.1568 47.7033 22.1185 47.9505C23.0802 48.1977 24.0938 48.153 25.0299 47.822C25.6563 47.5564 26.2661 47.2532 26.8559 46.914C27.3334 44.2313 27.2654 41.4798 26.6559 38.824C26.6559 38.456 26.5339 38.212 26.5339 37.844C26.7628 37.8768 26.9781 37.9723 27.1559 38.12C26.7559 39.588 32.2679 40.598 38.6979 38.824C38.7699 38.568 38.6459 38.252 38.7999 38.16C38.8994 38.0977 39.0113 38.0581 39.1278 38.0439C39.2443 38.0298 39.3625 38.0414 39.4739 38.078C39.5039 38.548 39.5139 39.006 39.5459 39.478C40.0446 39.525 40.5462 39.5317 41.0459 39.498C40.7179 39.7931 40.2867 39.9468 39.8459 39.926C39.9579 39.926 39.7839 40.14 39.8859 40.16C40.1819 40.232 40.7439 40.12 40.9779 40.222C40.5399 40.478 40.0499 40.334 39.7539 40.622C39.8259 42.182 39.8659 43.856 39.9279 45.422C40.8924 46.1541 42.0828 46.5253 43.2925 46.4713C44.5021 46.4172 45.6546 45.9412 46.5499 45.126C46.741 41.9925 46.6741 38.8485 46.3499 35.726C46.1159 35.696 45.8799 35.654 45.6459 35.624C49.2999 30.708 50.0039 25.678 46.9419 21.138C46.9119 20.938 46.7779 20.738 46.7419 20.538C49.4059 20.436 52.1419 20.712 54.8139 20.61C55.5353 20.8831 56.2796 21.0913 57.0379 21.232C57.8239 20.956 57.9659 18.774 57.1919 19.018C56.4179 19.262 55.9919 19.752 55.1619 20.058C52.0999 20.058 48.7019 19.936 45.6419 19.936C43.1438 17.9484 40.1851 16.6223 37.0391 16.0801C33.8931 15.538 30.6613 15.7972 27.6419 16.834C28.5719 18.8364 29.0966 21.003 29.1858 23.209C29.2751 25.4151 28.9271 27.617 28.1619 29.688C27.9879 30.26 25.3459 31.932 27.5079 30.106C29.6919 28.25 28.3239 15.356 25.6399 15.334C22.4816 15.3668 19.4496 16.5795 17.1399 18.734C16.7219 18.286 16.7519 18.468 16.9399 17.836C14.6556 17.6393 12.3545 17.8423 10.1399 18.436C9.56598 18.4543 9.01087 18.6452 8.54706 18.9838C8.08324 19.3224 7.73227 19.7929 7.53994 20.334C5.5216 27.547 4.71064 35.0442 5.13994 42.522C5.24502 43.4186 5.48226 44.2948 5.84394 45.122C7.04394 46.438 7.69194 46.06 8.08994 45.366H8.10394Z" fill="url(#paint0_linear)"/>
<path d="M12.8922 20.8438C12.2193 20.5694 11.4886 20.467 10.7662 20.5458C10.6999 20.5386 10.6332 20.5546 10.5774 20.5911C10.5216 20.6275 10.4802 20.6822 10.4602 20.7458C10.4333 20.7919 10.416 20.8429 10.4091 20.8958C10.4022 20.9487 10.406 21.0024 10.4202 21.0538C10.4822 21.2278 10.4922 21.2178 10.6442 21.2538C10.8455 21.2838 11.0511 21.266 11.2442 21.2018C11.4725 21.0815 11.7244 21.0128 11.9822 21.0003C12.24 20.9879 12.4974 21.0321 12.7362 21.1298C12.9602 21.1198 12.9822 21.0278 12.9102 20.8518L12.8922 20.8438Z" fill="#373435"/>
<path d="M10.8118 21.582C10.7325 21.5823 10.6534 21.5742 10.5758 21.558H10.5498C10.444 21.5472 10.3444 21.5024 10.2662 21.4303C10.1879 21.3582 10.1352 21.2626 10.1158 21.158C10.0877 21.064 10.0786 20.9653 10.0893 20.8677C10.0999 20.7702 10.1301 20.6757 10.1778 20.59C10.2242 20.4794 10.3033 20.3857 10.4045 20.3214C10.5056 20.257 10.624 20.2251 10.7438 20.23C11.4905 20.151 12.2451 20.2533 12.9438 20.528H13.1078L13.1898 20.728C13.2358 20.8034 13.2597 20.8902 13.259 20.9785C13.2582 21.0669 13.2328 21.1532 13.1856 21.2279C13.1384 21.3025 13.0713 21.3625 12.9918 21.4011C12.9123 21.4396 12.8237 21.4552 12.7358 21.446H12.6878L12.6338 21.43C12.4369 21.3447 12.2234 21.3044 12.0089 21.312C11.7944 21.3196 11.5843 21.375 11.3938 21.474L11.3578 21.496L11.3178 21.506C11.1532 21.5531 10.9831 21.5787 10.8118 21.582V21.582ZM10.7238 20.936C10.8585 20.9499 10.9946 20.9363 11.1238 20.896L11.2318 20.842C11.0918 20.842 10.9498 20.842 10.8058 20.864H10.7538L10.7418 20.888C10.7331 20.9028 10.727 20.9191 10.7238 20.936V20.936Z" fill="#373435"/>
<path d="M11.2441 23.3741C11.3355 23.1839 11.4797 23.0241 11.6596 22.9138C11.8394 22.8035 12.0472 22.7474 12.2581 22.7521C12.2981 22.4961 12.2581 22.3521 11.9301 22.3521C11.4643 22.5882 11.0664 22.9393 10.7741 23.3721C10.6063 23.7483 10.5527 24.1656 10.6201 24.5721C10.6567 24.8498 10.8002 25.1024 11.0201 25.2761C11.2478 25.4186 11.5133 25.4889 11.7817 25.4779C12.0501 25.4668 12.3089 25.3748 12.5241 25.2141C13.2401 24.7961 13.9561 23.6021 12.6981 23.1521C12.446 23.1029 12.1866 23.1046 11.9352 23.1571C11.6838 23.2097 11.4454 23.312 11.2341 23.4581C11.2141 23.4681 11.2041 23.4281 11.2341 23.3761L11.2441 23.3741Z" fill="#373435"/>
<path d="M11.6321 25.8119C11.3349 25.8178 11.0454 25.717 10.8161 25.5279C10.5331 25.3005 10.3495 24.9721 10.3041 24.6119C10.2226 24.1358 10.2925 23.6461 10.5041 23.2119C10.8241 22.7316 11.2612 22.3406 11.7741 22.0759L11.8441 22.0339H11.9201C12.0182 22.0244 12.1172 22.0365 12.2101 22.0693C12.303 22.1022 12.3877 22.1549 12.4581 22.2239C12.5185 22.3059 12.5602 22.4001 12.5803 22.5C12.6003 22.5999 12.5982 22.7029 12.5741 22.8019C12.8457 22.8429 13.0986 22.9649 13.2998 23.1518C13.501 23.3388 13.6412 23.582 13.7021 23.8499C13.6905 24.1889 13.5907 24.5191 13.4125 24.8077C13.2344 25.0964 12.984 25.3336 12.6861 25.4959C12.3684 25.6915 12.005 25.8005 11.6321 25.8119V25.8119ZM10.9861 23.6799C10.9121 23.9617 10.8957 24.2556 10.9381 24.5439C10.9661 24.7408 11.0702 24.9189 11.2281 25.0399C11.6141 25.3619 12.2401 25.0179 12.3621 24.9459C12.5545 24.8431 12.7191 24.6951 12.8417 24.5146C12.9643 24.3342 13.0413 24.1266 13.0661 23.9099C13.0481 23.7099 12.8881 23.5659 12.5921 23.4599C12.176 23.3971 11.7517 23.4958 11.4061 23.7359L11.3801 23.7499L11.1661 23.8579L10.9901 23.6799H10.9861Z" fill="#373435"/>
<path d="M11.8 24.7622C11.8041 24.8351 11.8183 24.9071 11.842 24.9762C11.8522 25.0084 11.8663 25.0393 11.884 25.0682C11.8256 25.1069 11.7587 25.1308 11.6889 25.1378C11.6192 25.1448 11.5489 25.1346 11.484 25.1082C11.042 24.9082 11.074 24.2882 11.3 23.9522C11.4184 23.7789 11.5758 23.6358 11.7595 23.5343C11.9433 23.4329 12.1482 23.376 12.358 23.3682C12.594 23.4902 12.666 23.6042 12.542 23.6342C12.4719 23.6474 12.4044 23.6717 12.342 23.7062C12.2945 23.7275 12.2521 23.7586 12.2176 23.7976C12.1831 23.8366 12.1573 23.8824 12.142 23.9322C12.244 23.9622 12.296 23.9322 12.388 23.9722V24.2902C12.2897 24.2408 12.1774 24.2267 12.07 24.2502C11.87 24.3122 11.792 24.5982 11.792 24.7722L11.8 24.7622Z" fill="#FEFEFE"/>
<path d="M12.646 32.9178C13.2126 32.7964 13.7494 32.5638 14.2255 32.2334C14.7015 31.903 15.1072 31.4814 15.4192 30.9931C15.7312 30.5048 15.9431 29.9595 16.0428 29.3887C16.1425 28.8179 16.128 28.233 16 27.6678C15.6419 27.6604 15.2911 27.5656 14.978 27.3918C14.958 27.2598 14.948 27.1258 14.926 26.9918C15.754 27.3918 16.926 27.5118 16.774 26.2458C16.886 26.2158 17.06 26.2058 17.174 26.1738C17.134 27.0618 16.974 27.1438 16.428 27.5218C16.585 28.49 16.5031 29.4818 16.1894 30.4111C15.8757 31.3404 15.3397 32.1789 14.628 32.8538C14.5856 33.1316 14.6103 33.4155 14.7 33.6818C14.4382 33.4083 14.1169 33.1987 13.7611 33.0694C13.4052 32.94 13.0243 32.8943 12.648 32.9358L12.646 32.9178Z" fill="#373435"/>
<path d="M15.2641 34.782L14.4641 33.8979C14.2319 33.6588 13.9475 33.4766 13.6331 33.3656C13.3188 33.2545 12.9831 33.2177 12.6521 33.2579H12.3281V32.698L12.5541 32.608C13.5839 32.3968 14.4908 31.7926 15.0823 30.9236C15.6738 30.0547 15.9033 28.9894 15.7221 27.954C15.3978 27.9298 15.0839 27.829 14.8061 27.66L14.6821 27.582L14.6601 27.44L14.6321 27.23L14.6081 27.042L14.5161 26.442L15.0621 26.706C15.2455 26.8238 15.4529 26.8992 15.6691 26.9269C15.8853 26.9546 16.105 26.9338 16.3121 26.866C16.4401 26.776 16.4881 26.58 16.4541 26.284L16.4241 26.012L16.6881 25.94C16.7665 25.9205 16.846 25.9058 16.9261 25.896C16.9799 25.8896 17.0334 25.8803 17.0861 25.868L17.5101 25.752L17.4901 26.19C17.4481 27.102 17.2481 27.332 16.7681 27.674C16.8931 28.6462 16.7911 29.6341 16.4701 30.5603C16.1491 31.4864 15.6179 32.3256 14.9181 33.012C14.9185 33.1823 14.9421 33.3519 14.9881 33.5159L15.2641 34.782ZM13.8641 32.7659C14.0095 32.8125 14.1502 32.8727 14.2841 32.9459C14.2901 32.8779 14.3042 32.8107 14.3261 32.7459L14.3481 32.6819L14.3941 32.632C14.5648 32.4493 14.7228 32.266 14.8681 32.082C14.5609 32.3478 14.224 32.5773 13.8641 32.7659Z" fill="#373435"/>
<path d="M44.3141 46.4258C44.2641 45.6718 44.1721 45.0098 44.1501 44.2538C44.1001 42.5218 42.7841 42.1438 42.7121 43.8758C42.6721 44.7838 42.7121 45.6398 42.7121 46.4958C43.246 46.5689 43.7886 46.5451 44.3141 46.4258V46.4258Z" fill="#8093D0"/>
<path d="M43.4778 46.64C43.2778 46.64 43.0898 46.628 42.8998 46.616L42.5998 46.5999V46.5V45.65C42.5998 45.078 42.5818 44.486 42.5998 43.876C42.6378 42.9699 42.9998 42.6479 43.3218 42.6479C43.7478 42.6479 44.2158 43.214 44.2478 44.248C44.2598 44.71 44.2998 45.132 44.3398 45.578C44.3658 45.85 44.3898 46.126 44.4098 46.414V46.5L44.3278 46.5239C44.0514 46.6025 43.7652 46.6416 43.4778 46.64V46.64ZM42.8198 46.4H42.9158C43.3448 46.4504 43.7791 46.4308 44.2018 46.342C44.1838 46.086 44.1598 45.84 44.1378 45.598C44.0958 45.148 44.0578 44.724 44.0438 44.254C44.0178 43.392 43.6438 42.854 43.3298 42.854C43.1138 42.854 42.8518 43.1219 42.8198 43.8779C42.7918 44.4779 42.8018 45.078 42.8198 45.64C42.8158 45.896 42.8198 46.146 42.8198 46.4Z" fill="#373435"/>
<path d="M42.7361 46.5138C42.5909 45.6438 42.5366 44.761 42.5741 43.8798C42.6861 42.2798 41.1741 40.5938 41.0721 43.5638C41.035 44.4318 41.0692 45.3013 41.1741 46.1638C41.6849 46.3207 42.2071 46.4378 42.7361 46.5138V46.5138Z" fill="#8093D0"/>
<path d="M42.858 46.6422L42.72 46.6202C42.185 46.5452 41.6566 46.4282 41.14 46.2702L41.076 46.2482V46.1822C40.9701 45.3132 40.936 44.4369 40.974 43.5622C41.006 42.6042 41.174 42.0362 41.5 41.8722C41.5744 41.8351 41.6578 41.8197 41.7406 41.8278C41.8234 41.8359 41.9022 41.8673 41.968 41.9182C42.2296 42.1705 42.4306 42.4789 42.5557 42.8201C42.6807 43.1614 42.7267 43.5266 42.69 43.8882C42.6449 44.6606 42.6817 45.4356 42.8 46.2002L42.858 46.6422ZM41.27 46.0882C41.7099 46.2189 42.1583 46.3191 42.612 46.3882L42.592 46.2222C42.4684 45.4461 42.4261 44.6591 42.466 43.8742C42.4999 43.55 42.4613 43.2223 42.3531 42.9148C42.2448 42.6073 42.0695 42.3277 41.84 42.0962C41.8057 42.067 41.7638 42.0481 41.7192 42.0417C41.6746 42.0353 41.6291 42.0417 41.588 42.0602C41.478 42.1162 41.218 42.3782 41.176 43.5682C41.1401 44.4094 41.1716 45.2521 41.27 46.0882V46.0882Z" fill="#373435"/>
<path d="M41.1758 46.2998L40.9618 42.8998C40.8078 40.3618 39.7878 40.6578 39.7058 42.7478C39.6658 43.7358 39.7458 44.2758 39.6538 45.2658C40.1338 45.5918 40.6338 46.2338 41.1758 46.2858V46.2998Z" fill="#8093D0"/>
<path d="M41.1659 46.4002C40.738 46.2957 40.3513 46.0651 40.0559 45.7382C39.9102 45.6039 39.7566 45.4783 39.5959 45.3622L39.5439 45.3262V45.2642C39.5858 44.7854 39.5998 44.3046 39.5859 43.8242V42.7522C39.6279 41.6862 39.9099 40.9942 40.3039 40.9902C40.7039 40.9902 40.9799 41.7042 41.0519 42.9022L41.2659 46.3022H41.1579L41.1659 46.4002ZM39.7659 45.2222C39.9099 45.3262 40.0539 45.4542 40.1959 45.5782C40.4406 45.8308 40.7348 46.0303 41.0599 46.1642L40.8599 42.9162C40.7839 41.6582 40.4979 41.2042 40.3239 41.2042C40.1439 41.2042 39.8579 41.7022 39.8179 42.7622C39.7999 43.1622 39.8059 43.5042 39.8179 43.8242C39.8258 44.2895 39.8084 44.7548 39.7659 45.2182V45.2222Z" fill="#373435"/>
<path d="M23.7298 48.0562C23.7569 47.2601 23.7161 46.4633 23.6078 45.6742C23.1798 43.8342 22.6398 43.6082 22.0078 44.9682V48.0242C22.5794 48.1024 23.1585 48.1091 23.7318 48.0442L23.7298 48.0562Z" fill="#8093D0"/>
<path d="M23.084 48.2001C22.752 48.2001 22.42 48.1701 22.094 48.1401L21.894 48.1221V44.9221C22.2 44.2641 22.494 43.9581 22.79 43.9901C23.154 44.0281 23.442 44.5541 23.696 45.6481L23.716 45.8221C23.8146 46.5631 23.85 47.3111 23.822 48.0581H23.718L23.732 48.1501C23.5177 48.1837 23.301 48.2004 23.084 48.2001V48.2001ZM22.112 47.9281C22.6142 47.9925 23.122 48.0012 23.626 47.9541C23.6459 47.2503 23.6098 46.5461 23.518 45.8481L23.5 45.6861C23.208 44.4321 22.924 44.2181 22.782 44.2041C22.672 44.2041 22.446 44.2821 22.112 44.9941V47.9281Z" fill="#373435"/>
<path d="M20.5999 47.552C20.6099 46.38 20.6199 45.604 20.6199 44.432C21.0479 42.708 21.4859 42.882 21.9139 44.952C21.9239 46.064 21.9339 46.788 21.9339 47.898C21.4657 47.8797 21.0068 47.7617 20.5879 47.552H20.5999Z" fill="#8093D0"/>
<path d="M22.0342 48.0181L21.8542 47.9981C21.3921 47.9758 20.94 47.8551 20.5282 47.6441L20.1782 47.4441H20.4862V46.8441C20.4862 46.0241 20.5002 45.3461 20.5002 44.4221V44.3961C20.7162 43.5281 20.9282 43.1401 21.1902 43.1401C21.3902 43.1401 21.6722 43.3501 21.9902 44.9201V45.6121C21.9902 46.3821 22.0042 47.0121 22.0042 47.8901L22.0342 48.0181ZM20.7002 47.4941C21.0525 47.6599 21.4335 47.7563 21.8222 47.7781C21.8222 46.9661 21.8222 46.3561 21.8082 45.6221V44.9521C21.4942 43.4461 21.2542 43.3641 21.2082 43.3641C21.1622 43.3641 20.9902 43.3881 20.7262 44.4441C20.7262 45.3621 20.7262 46.0441 20.7122 46.8561L20.7002 47.4941Z" fill="#373435"/>
<path d="M18.9999 45.2461C19.0619 44.2661 19.2659 43.2761 19.3259 42.2961C18.9259 40.3561 18.4899 40.0101 18.0319 41.2761C18.0119 42.5321 18.0019 43.7981 17.9819 45.0541C18.2845 45.2471 18.6489 45.3185 19.0019 45.2541L18.9999 45.2461Z" fill="#8093D0"/>
<path d="M18.7458 45.4C18.5016 45.3874 18.2635 45.319 18.0498 45.2L17.8818 45.124V45.054C17.8925 44.426 17.9012 43.7967 17.9078 43.166C17.9145 42.5353 17.9232 41.9053 17.9338 41.276V41.242C18.1338 40.668 18.3458 40.41 18.5858 40.426C18.8258 40.442 19.1038 40.668 19.4338 42.278V42.306C19.4038 42.8 19.3358 43.306 19.2698 43.788C19.2038 44.27 19.1378 44.768 19.1078 45.252V45.344L19.0238 45.362C18.9327 45.3842 18.8396 45.397 18.7458 45.4V45.4ZM18.0978 45L18.1378 45.018C18.3693 45.1562 18.6401 45.2139 18.9078 45.182C18.9398 44.712 19.0038 44.234 19.0678 43.772C19.1318 43.31 19.1978 42.8 19.2298 42.318C18.9158 40.792 18.6518 40.656 18.5778 40.65C18.5378 40.65 18.3778 40.684 18.1478 41.31C18.1372 41.9313 18.1285 42.5547 18.1218 43.18C18.1152 43.8053 18.1072 44.4067 18.0978 44.984V45Z" fill="#373435"/>
<path d="M38.0419 44.9359C38.1239 43.8939 38.0119 43.0259 38.0419 42.0059C38.0719 40.7699 39.2939 41.1279 39.3459 42.2619C39.3979 43.3959 39.4579 43.9779 39.5199 45.1099C39.0246 45.1937 38.5157 45.1333 38.0539 44.9359H38.0419Z" fill="#8093D0"/>
<path d="M38.926 45.2361C38.6133 45.2471 38.3028 45.1782 38.024 45.0361H37.936V44.9221C37.9718 44.3655 37.9758 43.8072 37.948 43.2501C37.936 42.8501 37.922 42.4361 37.936 41.9981C37.952 41.3541 38.27 41.1221 38.562 41.1201C38.962 41.1201 39.416 41.5501 39.446 42.2521C39.476 42.8301 39.506 43.2521 39.534 43.6941C39.562 44.1361 39.59 44.5401 39.62 45.0941V45.2021L39.31 45.2141C39.1826 45.2295 39.0544 45.2368 38.926 45.2361ZM38.152 44.8681C38.518 45.0195 38.9181 45.0692 39.31 45.0121H39.406C39.3818 44.58 39.3552 44.148 39.326 43.7161C39.298 43.2821 39.27 42.8501 39.238 42.2701C39.206 41.6901 38.872 41.3401 38.566 41.3401C38.316 41.3401 38.166 41.5941 38.15 42.0121C38.134 42.4301 38.15 42.8541 38.162 43.2521C38.1867 43.7906 38.1834 44.33 38.152 44.8681V44.8681Z" fill="#373435"/>
<path d="M37.9781 44.9739C37.9481 44.2099 37.9581 43.2919 37.9281 42.5279C38.0001 41.4779 37.2761 39.9279 36.9921 41.6519C36.9019 42.2904 36.8478 42.9334 36.8301 43.5779C37.1597 44.0845 37.5447 44.5527 37.9781 44.9739V44.9739Z" fill="#B9C5EA"/>
<path d="M38.0918 45.1898L37.9138 45.0618C37.5618 44.7514 37.2543 44.3941 36.9998 43.9998C36.9167 43.8821 36.8314 43.7661 36.7438 43.6518L36.7178 43.6198V43.5798C36.7318 43.3798 36.7418 43.1798 36.7498 43.0198C36.7648 42.5588 36.8089 42.0992 36.8818 41.6438C36.9178 41.4198 37.0298 40.7398 37.3878 40.7838C37.7878 40.8318 38.0738 41.8998 38.0298 42.5438C38.0458 42.9158 38.0498 43.3438 38.0558 43.7578C38.0618 44.1718 38.0658 44.5978 38.0818 44.9778L38.0918 45.1898ZM36.9358 43.5458C37.0058 43.6358 37.0858 43.7458 37.1738 43.8698C37.381 44.1759 37.6117 44.4654 37.8638 44.7358C37.8638 44.4198 37.8498 44.0818 37.8458 43.7538C37.8458 43.3418 37.8358 42.9138 37.8198 42.5338C37.8698 41.7898 37.5398 41.0078 37.3658 40.9878C37.3278 40.9758 37.1898 41.0958 37.0938 41.6698C37.0221 42.1173 36.9787 42.5688 36.9638 43.0218L36.9358 43.5438V43.5458Z" fill="#373435"/>
<path d="M28.8861 30.918C29.4061 28.438 29.9161 25.958 30.4361 23.468C30.5181 22.886 30.6701 22.366 31.2821 22.314H32.0261C32.4741 22.314 32.7301 22.58 32.7701 23.114L32.6181 24.216C32.6381 24.666 32.9141 24.92 33.4641 24.962C34.2081 24.992 34.9641 25.034 35.7081 25.064C36.8301 25.136 37.5841 25.616 37.5081 27.014L36.8041 30.708C36.7913 30.9933 36.6945 31.2686 36.5259 31.4992C36.3572 31.7297 36.1242 31.9054 35.8561 32.004C35.5201 31.984 35.1421 32.024 34.8061 32.004C34.2241 32.034 33.8881 31.82 34.1021 31.054C34.3161 30.084 34.5821 28.87 34.8061 27.9C34.8881 26.746 34.4601 26.686 34.0061 26.604C33.6181 26.552 33.2421 26.604 32.8541 26.552C32.2821 26.634 32.0681 27.184 31.9061 27.798C31.6621 28.828 31.4061 29.86 31.1621 30.9C31.0501 31.462 30.9281 31.828 30.5101 32.002H29.2661C28.7968 31.8993 28.6634 31.532 28.8661 30.9L28.8861 30.918Z" fill="#373435"/>
<path d="M35.018 32.2199H34.8C34.6498 32.2452 34.4957 32.2335 34.3511 32.1858C34.2064 32.138 34.0756 32.0557 33.97 31.9459C33.8815 31.8063 33.8281 31.6473 33.8145 31.4825C33.801 31.3178 33.8275 31.1522 33.892 30.9999L34.014 30.4439C34.2 29.5999 34.414 28.6579 34.59 27.8719C34.652 26.9419 34.402 26.8959 33.99 26.8199C33.618 26.7699 33.26 26.8199 32.86 26.7719C32.46 26.8439 32.278 27.2419 32.114 27.8559L31.782 29.2339L31.37 30.9539C31.234 31.5299 31.124 31.9819 30.592 32.2039L30.552 32.2199H29.22C29.1069 32.2014 28.999 32.1588 28.9038 32.095C28.8086 32.0311 28.7282 31.9476 28.668 31.8499C28.5981 31.6925 28.562 31.5222 28.562 31.3499C28.562 31.1777 28.5981 31.0074 28.668 30.8499L28.734 30.6499L29.534 26.7719L30.224 23.4499C30.28 23.0499 30.398 22.1999 31.262 22.1279H32.024C32.352 22.1279 32.914 22.2559 32.98 23.1279V23.1499L32.826 24.2539C32.84 24.4799 32.934 24.7379 33.474 24.7779L34.596 24.8279L35.71 24.8779C35.9947 24.8513 36.2818 24.8908 36.5487 24.9934C36.8156 25.096 37.0552 25.2588 37.2488 25.4693C37.4424 25.6797 37.5848 25.9321 37.6648 26.2066C37.7448 26.4811 37.7603 26.7704 37.71 27.0519V27.0799L37.006 30.7759C36.9863 31.098 36.8731 31.4073 36.6802 31.6659C36.4873 31.9245 36.2231 32.1212 35.92 32.2319L35.88 32.2459H35.33C35.228 32.2159 35.122 32.2199 35.018 32.2199V32.2199ZM34.802 31.7879H35.82C36.0418 31.6958 36.2324 31.5418 36.369 31.3442C36.5055 31.1467 36.5823 30.914 36.59 30.6739L37.292 26.9859C37.354 25.8619 36.876 25.3499 35.692 25.2759L34.58 25.2259L33.454 25.1739C32.574 25.1079 32.418 24.5519 32.404 24.2259V24.1999L32.556 23.1019C32.51 22.5899 32.248 22.5239 32.026 22.5239H31.282C30.914 22.5559 30.742 22.8099 30.646 23.4939L29.952 26.8299C29.6667 28.2073 29.38 29.5833 29.092 30.9579L29.012 31.3439L28.988 31.3199C28.9729 31.4229 28.9889 31.5281 29.034 31.6219C29.0626 31.6648 29.0997 31.7014 29.1431 31.7293C29.1865 31.7571 29.2351 31.7758 29.286 31.7839H30.46C30.746 31.6479 30.844 31.3839 30.948 30.8519L31.362 29.1219L31.694 27.7399C31.816 27.2839 32.038 26.4439 32.82 26.3399H32.878C33.242 26.3879 33.622 26.3399 34.03 26.3919H34.058C34.63 26.4959 35.096 26.6819 35.01 27.9099V27.9439C34.828 28.7319 34.61 29.6799 34.432 30.5279L34.306 31.0959C34.226 31.3819 34.226 31.5779 34.306 31.6739C34.386 31.7699 34.62 31.7959 34.792 31.7879H34.802Z" fill="#FEFEFE"/>
<path d="M19.2479 33.7881C19.7579 31.1441 20.2779 28.5001 20.7899 25.8661C20.7832 25.7464 20.8019 25.6267 20.8447 25.5147C20.8875 25.4028 20.9534 25.3011 21.0381 25.2163C21.1229 25.1316 21.2246 25.0657 21.3365 25.0229C21.4485 24.9801 21.5682 24.9615 21.6879 24.9681H26.3839C26.8314 24.9549 27.2739 25.0639 27.664 25.2835C28.0541 25.503 28.377 25.8248 28.5979 26.2141C28.9123 26.7834 29.0442 27.4354 28.9759 28.0821C28.8754 29.1925 28.3834 30.231 27.5879 31.0121C26.9365 31.5622 26.1384 31.9098 25.2919 32.0121C24.4919 32.0321 23.6919 32.0421 22.8919 32.0641C22.4319 32.0241 21.9739 32.1461 21.8619 32.5141C21.7199 33.0141 21.6179 33.5141 21.4739 34.0041C21.424 34.1145 21.3507 34.2127 21.2592 34.2921C21.1678 34.3715 21.0602 34.4302 20.9439 34.4641C20.4839 34.4741 20.0159 34.4741 19.5559 34.4841C19.0639 34.4921 19.1659 34.2001 19.2479 33.7881V33.7881ZM22.5239 29.2561C22.6559 28.5621 22.8199 27.7761 22.9419 27.1641C23.0071 26.9808 23.1297 26.8234 23.2915 26.7153C23.4532 26.6072 23.6456 26.5542 23.8399 26.5641C24.3241 26.5298 24.8102 26.5923 25.2699 26.7481C25.4712 26.8294 25.6529 26.9525 25.803 27.1092C25.9531 27.266 26.0681 27.4529 26.1406 27.6575C26.213 27.8621 26.2411 28.0798 26.2231 28.296C26.205 28.5123 26.1412 28.7223 26.0359 28.9121C25.858 29.2462 25.616 29.5418 25.3235 29.7821C25.0311 30.0223 24.6941 30.2024 24.3319 30.3121C23.9993 30.399 23.6551 30.4334 23.3119 30.4141C22.4339 30.3221 22.3619 30.0881 22.5119 29.2501L22.5239 29.2561Z" fill="#373435"/>
<path d="M19.532 34.6961C19.4469 34.7047 19.3609 34.6939 19.2805 34.6644C19.2001 34.635 19.1275 34.5877 19.068 34.5261C18.916 34.3441 18.968 34.0981 19.022 33.8381L19.04 33.7481C19.3214 32.2921 19.6047 30.8361 19.89 29.3801L20.576 25.8561C20.5674 25.7182 20.5875 25.58 20.635 25.4502C20.6825 25.3204 20.7564 25.2019 20.852 25.1021C20.9607 24.9881 21.0923 24.8983 21.2381 24.8387C21.3839 24.7791 21.5406 24.7509 21.698 24.7561H26.384C26.8705 24.7413 27.3517 24.8605 27.775 25.1007C28.1983 25.3409 28.5473 25.6929 28.784 26.1181C29.1157 26.722 29.2553 27.4128 29.184 28.0981C29.0798 29.2588 28.5666 30.3447 27.736 31.1621L27.712 31.1841C27.0305 31.7576 26.1964 32.1198 25.312 32.2261C24.9 32.2381 24.498 32.2441 24.098 32.2521L22.898 32.2781H22.874C22.552 32.2501 22.146 32.3101 22.074 32.5781C22.002 32.8461 21.944 33.0661 21.874 33.3121C21.804 33.5581 21.75 33.8121 21.674 34.0661C21.6176 34.2088 21.5296 34.3369 21.4167 34.4408C21.3038 34.5447 21.1689 34.6217 21.022 34.6661L20.984 34.6821H20.944L20.254 34.6921L19.556 34.7021L19.532 34.6961ZM19.398 34.2561C19.4475 34.2694 19.4989 34.2741 19.55 34.2701L20.254 34.2601H20.898C21.114 34.1641 21.238 34.0601 21.272 33.9521C21.342 33.7061 21.402 33.4621 21.472 33.2161C21.542 32.9701 21.596 32.7161 21.672 32.4641C21.802 32.0361 22.272 31.8061 22.914 31.8641L24.102 31.8381L25.302 31.8121C26.0983 31.7108 26.8484 31.3816 27.462 30.8641C28.2158 30.1205 28.6826 29.1345 28.78 28.0801C28.8451 27.4714 28.7208 26.8575 28.424 26.3221C28.2166 25.9691 27.9183 25.6783 27.5602 25.4799C27.2021 25.2815 26.7973 25.1828 26.388 25.1941H21.688C21.5902 25.1902 21.4926 25.2072 21.4019 25.2441C21.3111 25.2811 21.2294 25.337 21.162 25.4081C21.1041 25.4673 21.0598 25.5384 21.0322 25.6165C21.0046 25.6945 20.9943 25.7777 21.002 25.8601V25.9201L20.31 29.4741L19.46 33.8421L19.44 33.9361C19.4096 34.044 19.3961 34.156 19.4 34.2681L19.398 34.2561ZM23.502 30.6321H23.29C23.1212 30.6362 22.9533 30.6067 22.796 30.5452C22.6388 30.4838 22.4953 30.3916 22.374 30.2741C22.196 30.0361 22.212 29.7201 22.304 29.2181L22.376 28.8181L22.39 28.8321C22.46 28.4741 22.536 28.1061 22.606 27.7601L22.752 27.0741C22.835 26.8519 22.9869 26.6621 23.1856 26.5325C23.3843 26.4029 23.6192 26.3404 23.856 26.3541C24.3611 26.3203 24.8678 26.3883 25.346 26.5541C25.5572 26.6299 25.7503 26.7489 25.9128 26.9035C26.0754 27.0581 26.2038 27.245 26.29 27.4521C26.3852 27.7015 26.4289 27.9675 26.4186 28.2342C26.4083 28.501 26.3441 28.7628 26.23 29.0041L26.216 29.0301C26.0252 29.3861 25.766 29.7009 25.4534 29.9565C25.1408 30.2122 24.7808 30.4037 24.394 30.5201C24.101 30.5899 23.8012 30.6275 23.5 30.6321H23.502ZM22.676 29.6081C22.6447 29.7424 22.6595 29.8833 22.718 30.0081C22.788 30.1001 22.984 30.1601 23.334 30.1981C23.6545 30.214 23.9755 30.181 24.286 30.1001C24.6184 29.9983 24.9275 29.832 25.1955 29.6107C25.4635 29.3893 25.6853 29.1173 25.848 28.8101C25.9358 28.6235 25.9854 28.4212 25.994 28.2152C26.0026 28.0091 25.97 27.8034 25.898 27.6101C25.8332 27.4572 25.7373 27.3194 25.6165 27.2055C25.4957 27.0915 25.3525 27.0039 25.196 26.9481C24.7626 26.802 24.3042 26.7442 23.848 26.7781C23.6968 26.7657 23.5457 26.8042 23.4188 26.8875C23.292 26.9709 23.1966 27.0943 23.148 27.2381L23.026 27.8381C22.93 28.3101 22.826 28.8241 22.736 29.2961L22.676 29.6081Z" fill="#FEFEFE"/>
<path d="M37.0902 33.7881C37.6002 31.1441 38.1202 28.5001 38.6322 25.8661C38.6256 25.7464 38.6442 25.6267 38.687 25.5147C38.7298 25.4028 38.7957 25.3011 38.8805 25.2163C38.9652 25.1316 39.0669 25.0657 39.1789 25.0229C39.2908 24.9801 39.4106 24.9615 39.5302 24.9681H44.2262C44.6737 24.9549 45.1163 25.0639 45.5064 25.2835C45.8965 25.503 46.2193 25.8248 46.4402 26.2141C46.7546 26.7834 46.8866 27.4354 46.8182 28.0821C46.7177 29.1925 46.2258 30.231 45.4302 31.0121C44.7788 31.5622 43.9807 31.9098 43.1342 32.0121C42.3342 32.0321 41.5342 32.0421 40.7342 32.0641C40.2742 32.0241 39.8162 32.1461 39.7042 32.5141C39.5622 33.0141 39.4602 33.5141 39.3162 34.0041C39.2663 34.1145 39.1931 34.2127 39.1016 34.2921C39.0101 34.3715 38.9025 34.4302 38.7862 34.4641C38.3262 34.4741 37.8582 34.4741 37.3982 34.4841C36.9062 34.4921 37.0002 34.2001 37.0902 33.7881V33.7881ZM40.3662 29.2561C40.4982 28.5621 40.6622 27.7761 40.7842 27.1641C40.8494 26.9808 40.972 26.8234 41.1338 26.7153C41.2956 26.6072 41.4879 26.5542 41.6822 26.5641C42.1664 26.5298 42.6525 26.5923 43.1122 26.7481C43.3135 26.8294 43.4952 26.9525 43.6453 27.1092C43.7954 27.266 43.9105 27.4529 43.9829 27.6575C44.0553 27.8621 44.0834 28.0798 44.0654 28.296C44.0473 28.5123 43.9836 28.7223 43.8782 28.9121C43.7004 29.2462 43.4583 29.5418 43.1659 29.7821C42.8734 30.0223 42.5365 30.2024 42.1742 30.3121C41.8416 30.399 41.4975 30.4334 41.1542 30.4141C40.2762 30.3221 40.2042 30.0881 40.3542 29.2501L40.3662 29.2561Z" fill="#373435"/>
<path d="M37.3738 34.6961C37.2887 34.7046 37.2027 34.6937 37.1224 34.6642C37.042 34.6348 36.9694 34.5876 36.9098 34.5261C36.7578 34.3441 36.8098 34.0981 36.8638 33.8381L36.8818 33.7481C37.1618 32.2961 37.4438 30.8455 37.7278 29.3961L38.4178 25.8561C38.4092 25.7182 38.4293 25.58 38.4768 25.4502C38.5243 25.3204 38.5982 25.2019 38.6938 25.1021C38.8025 24.9881 38.9341 24.8983 39.0799 24.8387C39.2257 24.7791 39.3824 24.7509 39.5398 24.7561H44.2258C44.7123 24.7413 45.1935 24.8605 45.6168 25.1007C46.0401 25.3409 46.3891 25.6929 46.6258 26.1181C46.9574 26.7221 47.0969 27.4128 47.0258 28.0981C46.9214 29.2587 46.4083 30.3446 45.5778 31.1621L45.5538 31.1841C44.8723 31.7576 44.0382 32.1198 43.1538 32.2261C42.7418 32.2381 42.3398 32.2441 41.9398 32.2521L40.7398 32.2781H40.7158C40.3918 32.2501 39.9878 32.3101 39.9158 32.5781C39.8438 32.8461 39.7858 33.0661 39.7158 33.3101C39.6458 33.5541 39.5918 33.8121 39.5158 34.0641C39.4594 34.2068 39.3714 34.3349 39.2585 34.4388C39.1456 34.5427 39.0107 34.6197 38.8638 34.6641L38.8258 34.6801H38.7858L38.0958 34.6901L37.3978 34.7001L37.3738 34.6961ZM37.2398 34.2561C37.2894 34.2689 37.3407 34.2737 37.3918 34.2701L38.0958 34.2601H38.7398C38.9558 34.1641 39.0798 34.0601 39.1138 33.9521C39.1838 33.7061 39.2458 33.4601 39.3138 33.2161C39.3818 32.9721 39.4378 32.7181 39.5138 32.4661C39.6438 32.0381 40.1138 31.8081 40.7558 31.8661L41.9438 31.8401L43.1438 31.8141C43.9401 31.7128 44.6902 31.3836 45.3038 30.8661C46.0576 30.1225 46.5244 29.1365 46.6218 28.0821C46.6871 27.4734 46.5627 26.8595 46.2658 26.3241C46.0584 25.9711 45.7601 25.6803 45.402 25.4819C45.0439 25.2835 44.6391 25.1848 44.2298 25.1961H39.5298C39.4319 25.1919 39.3343 25.2088 39.2435 25.2458C39.1527 25.2827 39.071 25.3388 39.0038 25.4101C38.9459 25.4693 38.9016 25.5404 38.874 25.6185C38.8464 25.6965 38.8361 25.7797 38.8438 25.8621V25.9221L38.1498 29.4921L37.3038 33.8441L37.2838 33.9381C37.2534 34.046 37.2399 34.158 37.2438 34.2701L37.2398 34.2561ZM41.3438 30.6321H41.1318C40.963 30.6362 40.7951 30.6067 40.6378 30.5452C40.4806 30.4838 40.3371 30.3916 40.2158 30.2741C40.0378 30.0361 40.0538 29.7201 40.1458 29.2181L40.2178 28.8181L40.2318 28.8321C40.3018 28.4721 40.3778 28.1021 40.4478 27.7541L40.5938 27.0721C40.676 26.8493 40.8277 26.659 41.0266 26.5293C41.2255 26.3996 41.4609 26.3375 41.6978 26.3521C42.2029 26.3189 42.7094 26.3869 43.1878 26.5521C43.399 26.6279 43.5921 26.7469 43.7546 26.9015C43.9172 27.0561 44.0456 27.243 44.1318 27.4501C44.227 27.6995 44.2707 27.9655 44.2604 28.2322C44.2501 28.499 44.1859 28.7608 44.0718 29.0021L44.0578 29.0281C43.867 29.3841 43.6078 29.6989 43.2952 29.9545C42.9826 30.2102 42.6226 30.4017 42.2358 30.5181C41.9435 30.5884 41.6444 30.6267 41.3438 30.6321V30.6321ZM40.5158 29.6101C40.4845 29.7444 40.4993 29.8853 40.5578 30.0101C40.6278 30.1021 40.8238 30.1621 41.1738 30.2001C41.4943 30.216 41.8153 30.1829 42.1258 30.1021C42.4582 30.0003 42.7673 29.834 43.0353 29.6127C43.3033 29.3913 43.5251 29.1193 43.6878 28.8121C43.7756 28.6255 43.8252 28.4232 43.8338 28.2172C43.8424 28.0111 43.8098 27.8054 43.7378 27.6121C43.673 27.4592 43.5771 27.3214 43.4563 27.2075C43.3355 27.0935 43.1923 27.0059 43.0358 26.9501C42.6024 26.8038 42.144 26.746 41.6878 26.7801C41.5366 26.768 41.3857 26.8067 41.2589 26.89C41.1321 26.9733 41.0367 27.0965 40.9878 27.2401L40.8658 27.8401C40.7698 28.3141 40.6658 28.8301 40.5758 29.3021L40.5158 29.6101Z" fill="#FEFEFE"/>
<path d="M6.85024 45.812C6.61108 45.5824 6.40871 45.3173 6.25024 45.026C6.00341 44.5766 5.88378 44.0684 5.90424 43.556C5.38424 34.69 5.84224 26.936 8.66824 20.6C9.01424 19.824 9.06824 19.59 9.79024 19.232C11.996 18.4233 14.362 18.1491 16.6942 18.432C16.7662 18.232 16.9082 18.032 16.8462 17.832C14.7357 17.6631 12.6116 17.8319 10.5542 18.332C9.15424 18.556 7.79024 18.802 7.45424 21.026C4.63024 28.504 4.83424 35.586 5.12824 42.544C5.12612 43.046 5.20169 43.5452 5.35224 44.024C5.90224 45.778 6.43424 45.718 6.85224 45.81L6.85024 45.812Z" fill="#EBEFFF"/>
<path d="M17.6959 44.7021C17.6959 42.8561 17.5439 41.0101 17.5439 39.1561C17.4692 38.0983 17.2394 37.0572 16.8619 36.0661C16.4528 35.3452 15.9846 34.6595 15.4619 34.0161C17.051 37.036 17.5457 40.5129 16.8619 43.8561C17.1459 44.1401 17.3999 44.4261 17.6959 44.7021V44.7021Z" fill="#EBEFFF"/>
<path d="M17.848 45.0679L17.706 45.0139C17.1724 44.7846 16.7147 44.4087 16.386 43.9299L16.248 43.7559H16.378C16.408 43.0939 16.396 42.4879 16.378 41.8999C16.366 41.2799 16.352 40.6399 16.388 39.9359V39.8179L16.506 39.8359C16.8323 39.8675 17.1406 40.0002 17.3879 40.2152C17.6353 40.4303 17.8094 40.7172 17.886 41.0359V41.0679L17.86 42.9779L17.834 44.9179L17.848 45.0679ZM16.586 43.8399C16.8609 44.2227 17.2211 44.5363 17.638 44.7559C17.638 44.1239 17.654 43.5559 17.662 42.9739C17.662 42.3739 17.678 41.7599 17.688 41.0799C17.6259 40.8233 17.4896 40.5906 17.2962 40.411C17.1027 40.2314 16.8606 40.1127 16.6 40.0699C16.572 40.7179 16.584 41.3159 16.6 41.8959C16.6 42.5099 16.62 43.1439 16.586 43.8399Z" fill="#373435"/>
<path d="M20.5042 47.3138C20.0871 47.1492 19.7357 46.8519 19.5042 46.4678C19.4322 43.1718 19.3702 39.8678 19.3042 36.5698L19.8062 37.0698C19.9186 37.7647 19.9701 38.468 19.9602 39.1718L20.1142 39.5718C20.1114 42.1575 20.2415 44.7415 20.5042 47.3138V47.3138Z" fill="#EBEFFF"/>
<path d="M20.6699 48.0461L20.5299 48.0001C19.9482 47.7954 19.4667 47.3761 19.1839 46.8281L19.1699 46.8001V46.7601C19.1699 45.6621 19.1899 44.5261 19.1899 43.4141V43.3861L19.2039 43.3621C19.5059 42.8121 19.7659 42.4581 20.0499 42.5141C20.2719 42.5581 20.5219 42.8161 20.6899 44.3841C20.6899 45.5501 20.6699 46.7381 20.6699 47.9001V48.0461ZM19.3839 46.7461C19.62 47.1902 19.9981 47.5423 20.4579 47.7461C20.4579 46.6321 20.4679 45.4981 20.4779 44.3981C20.3219 42.9401 20.0979 42.7401 20.0099 42.7221C19.9219 42.7041 19.7499 42.8161 19.4099 43.4401C19.3999 44.5401 19.3999 45.6621 19.3839 46.7481V46.7461Z" fill="#373435"/>
<path d="M17.0002 36.1138C17.0064 35.9441 16.982 35.7748 16.9282 35.6138C17.0102 35.6338 17.0922 35.6438 17.1722 35.6658L18.4662 36.7178C18.6464 36.6414 18.7899 36.498 18.8662 36.3178C18.9481 36.3165 19.0291 36.3338 19.1033 36.3685C19.1774 36.4031 19.2427 36.4542 19.2942 36.5178C19.3142 37.3558 19.2542 38.1818 19.2742 39.0178C19.4085 39.1323 19.4955 39.2927 19.5182 39.4678C20.054 39.4892 20.5882 39.5406 21.1182 39.6218C21.1482 39.7538 21.1902 39.8358 21.2202 39.9698C20.6221 39.9027 20.0183 39.9027 19.4202 39.9698V40.3478C19.8893 40.3237 20.3596 40.358 20.8202 40.4498L20.8702 40.7258C20.3722 40.6661 19.8685 40.6728 19.3722 40.7458C19.4442 42.8038 19.4442 44.8637 19.3722 46.9218C19.2082 46.5338 18.8942 46.1558 18.7202 45.7678C19.0308 43.1281 19.0717 40.4637 18.8422 37.8158C18.3677 37.114 17.7373 36.5314 17.0002 36.1138V36.1138Z" fill="#373435"/>
<path d="M19.0878 47.0479C18.9992 46.8573 18.8956 46.674 18.7778 46.4999C18.6503 46.3083 18.5367 46.1077 18.4378 45.8999L18.3998 45.8179L18.4118 45.7279C18.715 43.1387 18.7565 40.5255 18.5358 37.9279C18.0842 37.3005 17.5031 36.7774 16.8318 36.3939L16.6518 36.2779L16.6918 36.0659C16.6926 35.9891 16.6804 35.9127 16.6558 35.8399C16.6422 35.7876 16.6301 35.7349 16.6198 35.6819L16.5278 35.1919L17.0118 35.3119L17.1158 35.3339C17.1618 35.3339 17.2098 35.3519 17.2558 35.3639L17.3238 35.3819L18.4918 36.3299C18.526 36.2982 18.5527 36.2592 18.5698 36.2159L18.6478 36.0159H18.8698C19.0036 36.0149 19.1357 36.0453 19.2556 36.1047C19.3754 36.1641 19.4796 36.2508 19.5598 36.3579L19.6138 36.4359V36.5319C19.6238 36.9579 19.6138 37.3859 19.6038 37.7979C19.6038 38.1639 19.5858 38.5419 19.5918 38.9139C19.6609 38.9929 19.7188 39.0811 19.7638 39.1759C20.0958 39.1899 20.4238 39.2339 20.7438 39.2739L21.1558 39.3239L21.3798 39.3499L21.4298 39.5699C21.4414 39.6186 21.4554 39.6666 21.4718 39.7139C21.4918 39.7759 21.5138 39.8399 21.5318 39.9139L21.6298 40.3379L21.1958 40.3039H21.1178L21.2638 41.1039L20.8418 41.0599C20.464 41.0165 20.0828 41.0105 19.7038 41.0419C19.7661 43.0107 19.7661 44.9811 19.7038 46.9499L19.0878 47.0479ZM19.0598 45.7199L19.0978 45.7919V45.3539C19.0885 45.4766 19.0758 45.5986 19.0598 45.7199ZM18.6298 36.9999C18.7564 37.1349 18.8733 37.2786 18.9798 37.4299V36.7379C18.8796 36.8453 18.7611 36.934 18.6298 36.9999V36.9999Z" fill="#373435"/>
<path d="M18.2422 17.928C19.1649 17.8068 20.0538 17.5014 20.8562 17.03C22.4471 16.1392 24.2214 15.626 26.0422 15.53C25.2889 15.1898 24.4414 15.1192 23.6422 15.33C21.6794 15.8064 19.8393 16.6917 18.2422 17.928V17.928Z" fill="#EBEFFF"/>
<path d="M28.228 16.8202C32.6076 15.5594 37.2798 15.7702 41.528 17.4202C37.3518 15.5849 32.665 15.2687 28.28 16.5262C28.278 16.7302 28.228 16.6282 28.228 16.8202V16.8202Z" fill="#EBEFFF"/>
<defs>
<linearGradient id="paint0_linear" x1="16.8781" y1="12.5229" x2="29.6296" y2="54.9871" gradientUnits="userSpaceOnUse">
<stop stop-color="#8A9FE0"/>
<stop offset="0.588" stop-color="#7182B8"/>
<stop offset="1" stop-color="#576490"/>
</linearGradient>
</defs>
</svg>
