<svg width="64" height="64" viewBox="0 0 64 64" fill="none" xmlns="http://www.w3.org/2000/svg">
<g clip-path="url(#clip0)">
<path fill-rule="evenodd" clip-rule="evenodd" d="M62.432 54.8595L29.0605 21.4874C26.1242 18.5517 31.015 11.543 25.3939 5.92256L15.145 0L12.9811 2.1632L18.6336 7.81504C20.7974 9.97824 19.177 14.8442 17.0048 17.0163C14.8499 19.1712 9.97952 20.7962 7.81632 18.6323L2.1632 12.9811L0 15.145L5.92256 25.3939C11.5123 30.9843 18.6394 26.2112 21.488 29.0605L54.8595 62.4326C55.8659 63.4266 57.2247 63.982 58.6391 63.9776C60.0536 63.9732 61.4089 63.4093 62.409 62.409C63.4092 61.4088 63.973 60.0535 63.9773 58.639C63.9816 57.2245 63.426 55.8658 62.432 54.8595V54.8595ZM60.2682 60.2682C60.0551 60.4812 59.8022 60.6502 59.5238 60.7655C59.2454 60.8808 58.9471 60.9402 58.6458 60.9402C58.3445 60.9402 58.0461 60.8808 57.7677 60.7655C57.4894 60.6502 57.2364 60.4812 57.0234 60.2682C56.8103 60.0551 56.6413 59.8022 56.526 59.5238C56.4107 59.2454 56.3513 58.9471 56.3513 58.6458C56.3513 58.3445 56.4107 58.0461 56.526 57.7677C56.6413 57.4894 56.8103 57.2364 57.0234 57.0234C57.4536 56.5931 58.0372 56.3513 58.6458 56.3513C59.2543 56.3513 59.8379 56.5931 60.2682 57.0234C60.6984 57.4536 60.9402 58.0372 60.9402 58.6458C60.9402 59.2543 60.6984 59.8379 60.2682 60.2682V60.2682Z" fill="#BDC3C7"/>
<path d="M21.5565 7.89369L14.4077 0.736572L12.9812 2.16313L18.6336 7.81497C20.7975 9.97817 19.177 14.8441 17.0048 17.0163C14.8499 19.1711 9.97955 20.7961 7.81635 18.6323L2.16323 12.9811L0.899231 14.2451L8.05251 21.4067C9.02787 22.3827 10.5575 22.8991 12.4756 22.8991C15.3504 22.8991 18.5255 21.7318 20.1959 20.0595C23.0227 17.2307 24.2349 10.5734 21.5565 7.89369ZM61.2775 56.2873L29.296 24.302C28.6292 23.6351 27.7434 23.2684 26.8013 23.2684C25.8592 23.2684 24.9728 23.6358 24.3066 24.302C23.646 24.9645 23.2751 25.8618 23.2751 26.7974C23.2751 27.7329 23.646 28.6303 24.3066 29.2927L56.288 61.2774C56.9543 61.9443 57.8407 62.311 58.7828 62.311C59.7248 62.311 60.6112 61.9443 61.2775 61.2774C61.9382 60.6151 62.3092 59.7178 62.3092 58.7823C62.3092 57.8469 61.9382 56.9496 61.2775 56.2873ZM60.2682 60.2681C60.0551 60.4812 59.8022 60.6502 59.5238 60.7655C59.2455 60.8808 58.9471 60.9401 58.6458 60.9401C58.3445 60.9401 58.0461 60.8808 57.7678 60.7655C57.4894 60.6502 57.2364 60.4812 57.0234 60.2681C56.8103 60.055 56.6413 59.8021 56.526 59.5237C56.4107 59.2454 56.3514 58.947 56.3514 58.6457C56.3514 58.3444 56.4107 58.046 56.526 57.7677C56.6413 57.4893 56.8103 57.2364 57.0234 57.0233C57.4537 56.593 58.0373 56.3513 58.6458 56.3513C59.2543 56.3513 59.8379 56.593 60.2682 57.0233C60.6985 57.4536 60.9402 58.0372 60.9402 58.6457C60.9402 59.2542 60.6985 59.8378 60.2682 60.2681V60.2681Z" fill="#95A5A6"/>
<path fill-rule="evenodd" clip-rule="evenodd" d="M51.2 8.96006L59.52 2.56006L64 7.04006L57.6 15.3601H54.4L35.2 34.5601L32 31.3601L51.2 12.1601V8.96006Z" fill="#ECF0F1"/>
<path fill-rule="evenodd" clip-rule="evenodd" d="M33.6 32.9601L35.2 34.5601L54.4 15.36H57.6L64 7.04005L61.76 4.80005L33.6 32.9601Z" fill="#BDC3C7"/>
<path fill-rule="evenodd" clip-rule="evenodd" d="M27.2064 29.5008L27.7529 30.0416L3.69149 53.863C3.3333 54.2162 3.04887 54.637 2.85472 55.101C2.66058 55.5651 2.56061 56.0631 2.56061 56.5661C2.56061 57.0691 2.66058 57.5671 2.85472 58.0311C3.04887 58.4951 3.3333 58.916 3.69149 59.2691L6.96765 62.5126C8.47549 64.0051 10.2765 64.6413 11.7843 63.1488L36.4902 38.6905L37.0361 39.2313C37.639 39.8285 38.6176 39.8285 39.2205 39.2313C39.8233 38.6342 39.8233 37.6659 39.2205 37.0688L29.3907 27.3382C28.7878 26.7411 27.8093 26.7411 27.2064 27.3382C26.6035 27.9353 26.6029 28.9037 27.2064 29.5008V29.5008Z" fill="#D35400"/>
<path fill-rule="evenodd" clip-rule="evenodd" d="M32.16 34.4L5.50018 61.0599L6.9677 62.5133C8.47554 64.0058 10.2765 64.6419 11.7843 63.1495L36.4711 38.7104L32.16 34.4V34.4Z" fill="#E66612"/>
</g>
<defs>
<clipPath id="clip0">
<rect width="64" height="64" fill="white"/>
</clipPath>
</defs>
</svg>
