<svg width="64" height="64" viewBox="0 0 64 64" fill="none" xmlns="http://www.w3.org/2000/svg">
<path d="M2.66666 50.6666H61.3333V2.66663H2.66666V50.6666ZM13.3333 61.3333H50.6667H13.3333ZM21.3333 61.3333H42.6667V50.6666H21.3333V61.3333ZM20.6853 15.352L26.344 21.0106L20.6853 15.352ZM24 26.6666H16H24ZM26.344 32.3226L20.6853 37.9813L26.344 32.3226ZM32 34.6666V42.6666V34.6666ZM37.656 32.3226L43.3147 37.9813L37.656 32.3226V32.3226ZM48 26.6666H40H48ZM43.3147 15.352L37.656 21.0106L43.3147 15.352ZM32 18.6666V10.6666V18.6666ZM32 18.6666C29.8783 18.6666 27.8434 19.5095 26.3431 21.0098C24.8428 22.5101 24 24.5449 24 26.6666C24 28.7884 24.8428 30.8232 26.3431 32.3235C27.8434 33.8238 29.8783 34.6666 32 34.6666C34.1217 34.6666 36.1566 33.8238 37.6568 32.3235C39.1571 30.8232 40 28.7884 40 26.6666C40 24.5449 39.1571 22.5101 37.6568 21.0098C36.1566 19.5095 34.1217 18.6666 32 18.6666Z" stroke="#FF5733" stroke-width="2"/>
</svg>
