<svg width="64" height="64" viewBox="0 0 64 64" fill="none" xmlns="http://www.w3.org/2000/svg">
<path d="M4 32V60H60V4H4V32Z" fill="#007ACC"/>
<path d="M12.1526 30.2125L12.1323 32.8332H20.4623V56.5032H26.3548V32.8332H34.6848V30.2632C34.6848 28.8407 34.6543 27.6522 34.6138 27.6217C34.5833 27.5812 29.5141 27.5607 23.3681 27.571L12.1833 27.6015L12.1528 30.2122L12.1526 30.2125Z" fill="white"/>
<path d="M49.642 27.5271C51.2672 27.9336 52.5067 28.6546 53.6445 29.8331C54.2337 30.4631 55.1072 31.6111 55.1785 31.8853C55.1985 31.9666 52.4152 33.8358 50.729 34.8821C50.668 34.9228 50.424 34.6586 50.1497 34.2521C49.327 33.0536 48.4635 32.5353 47.1427 32.4441C45.2027 32.3118 43.953 33.3278 43.9632 35.0241C43.9632 35.5221 44.0342 35.8166 44.2375 36.2231C44.6642 37.1068 45.4565 37.6351 47.9455 38.7118C52.527 40.6828 54.4875 41.9831 55.7067 43.8318C57.068 45.8943 57.3727 49.1856 56.4482 51.6338C55.4325 54.2953 52.9132 56.1038 49.3675 56.7031C48.2705 56.8961 45.67 56.8656 44.4915 56.6523C41.9215 56.1951 39.4832 54.9253 37.9797 53.2593C37.3905 52.6091 36.2425 50.9126 36.3137 50.7906C36.3442 50.7501 36.6082 50.5876 36.9027 50.4148C37.1872 50.2523 38.2642 49.6323 39.28 49.0433L41.1187 47.9766L41.5047 48.5456C42.0432 49.3683 43.2215 50.4961 43.9327 50.8718C45.9745 51.9488 48.7785 51.7963 50.16 50.5568C50.7492 50.0186 50.993 49.4598 50.993 48.6368C50.993 47.8953 50.9015 47.5703 50.5155 47.0118C50.018 46.3006 49.002 45.7011 46.1167 44.4518C42.8152 43.0293 41.393 42.1456 40.0927 40.7436C39.341 39.9311 38.6297 38.6306 38.3352 37.5436C38.0915 36.6396 38.0302 34.3741 38.2235 33.4598C38.9042 30.2698 41.3117 28.0453 44.786 27.3848C45.9135 27.1716 48.5345 27.2528 49.642 27.5273V27.5271Z" fill="white"/>
</svg>
