<svg width="32" height="32" viewBox="0 0 32 32" fill="none" xmlns="http://www.w3.org/2000/svg">
<path d="M29.01 5.02993L23.244 2.25393C22.9184 2.09692 22.552 2.04511 22.1956 2.10568C21.8392 2.16624 21.5105 2.33618 21.255 2.59193L2.38003 19.7999C2.15102 20.0077 2.01394 20.298 1.99893 20.6069C1.98393 20.9157 2.09224 21.2179 2.30003 21.4469C2.32503 21.4739 2.35003 21.4999 2.37703 21.5239L3.91803 22.9239C4.11939 23.1072 4.37859 23.2141 4.65059 23.2262C4.9226 23.2383 5.19024 23.1547 5.40703 22.9899L28.142 5.74993C28.3138 5.61962 28.5184 5.53983 28.7331 5.51954C28.9477 5.49926 29.1637 5.53928 29.3568 5.6351C29.5499 5.73092 29.7124 5.87874 29.826 6.06192C29.9397 6.2451 29.9999 6.45636 30 6.67193V6.60493C30 6.27583 29.9071 5.95342 29.7319 5.67479C29.5568 5.39616 29.3066 5.17264 29.01 5.02993V5.02993Z" fill="#0065A9"/>
<path d="M29.01 26.9701L23.244 29.7471C22.9183 29.9037 22.552 29.9553 22.1957 29.8947C21.8394 29.8342 21.5107 29.6645 21.255 29.4091L2.38003 12.2001C2.15102 11.9923 2.01394 11.7021 1.99893 11.3932C1.98393 11.0843 2.09224 10.7822 2.30003 10.5531C2.32503 10.5261 2.35003 10.5001 2.37703 10.4761L3.91803 9.07614C4.1196 8.89211 4.37938 8.78469 4.65206 8.77262C4.92474 8.76056 5.193 8.84462 5.41003 9.01014L28.142 26.2501C28.3138 26.3805 28.5184 26.4602 28.7331 26.4805C28.9477 26.5008 29.1637 26.4608 29.3568 26.365C29.5499 26.2692 29.7124 26.1213 29.826 25.9382C29.9397 25.755 29.9999 25.5437 30 25.3281V25.4001C29.999 25.7284 29.9055 26.0497 29.7305 26.3273C29.5554 26.6049 29.3057 26.8277 29.01 26.9701V26.9701Z" fill="#007ACC"/>
<path d="M23.244 29.7472C22.9183 29.9037 22.552 29.9553 22.1957 29.8948C21.8394 29.8342 21.5107 29.6646 21.255 29.4092C21.3986 29.5509 21.5808 29.6471 21.7789 29.6857C21.9769 29.7243 22.1819 29.7036 22.3683 29.6262C22.5546 29.5488 22.7139 29.4181 22.8263 29.2505C22.9387 29.083 22.9991 28.886 23 28.6842V3.31618C23.0001 3.11347 22.9401 2.91527 22.8276 2.74669C22.715 2.57811 22.5549 2.44673 22.3676 2.3692C22.1803 2.29166 21.9742 2.27147 21.7755 2.31116C21.5767 2.35086 21.3941 2.44866 21.251 2.59218C21.5065 2.33653 21.8352 2.16658 22.1915 2.10585C22.5478 2.04512 22.9142 2.0966 23.24 2.25318L29.005 5.02518C29.3025 5.16718 29.5537 5.3904 29.7298 5.66909C29.9058 5.94777 29.9995 6.27055 30 6.60018V25.4002C30.0001 25.7296 29.9071 26.0523 29.7317 26.3311C29.5564 26.6099 29.3059 26.8335 29.009 26.9762L23.244 29.7472Z" fill="#1F9CF0"/>
</svg>
