<svg width="64" height="64" viewBox="0 0 64 64" fill="none" xmlns="http://www.w3.org/2000/svg">
<path d="M7.7125 21.175L20.4 55.925C11.525 51.625 5.4125 42.525 5.4125 32C5.4125 28.1375 6.2375 24.4875 7.7125 21.175V21.175ZM49.95 30.6625C49.95 27.375 48.775 25.1 47.7625 23.325C46.4125 21.1375 45.15 19.275 45.15 17.0875C45.15 14.6375 47 12.3625 49.6125 12.3625C49.725 12.3625 49.8375 12.375 49.9625 12.3875C45.225 8.05 38.925 5.4 32 5.4C22.7125 5.4 14.5375 10.1625 9.775 17.3875C10.4 17.4125 10.9875 17.425 11.4875 17.425C14.2625 17.425 18.575 17.0875 18.575 17.0875C20.0125 17 20.175 19.1125 18.75 19.275C18.75 19.275 17.3125 19.4375 15.7125 19.525L25.4 48.325L31.225 30.875L27.0875 19.525C25.65 19.4375 24.3 19.275 24.3 19.275C22.8625 19.1875 23.0375 17 24.4625 17.0875C24.4625 17.0875 28.85 17.425 31.4625 17.425C34.2375 17.425 38.55 17.0875 38.55 17.0875C39.9875 17 40.15 19.1125 38.725 19.275C38.725 19.275 37.2875 19.4375 35.6875 19.525L45.3 48.1125L47.95 39.25C49.075 35.575 49.95 32.9375 49.95 30.6625ZM32.4625 34.325L24.4875 57.5125C26.875 58.2125 29.3875 58.6 32 58.6C35.1 58.6 38.0625 58.0625 40.825 57.0875C40.75 56.975 40.6875 56.85 40.6375 56.725L32.4625 34.325ZM55.3375 19.2375C55.45 20.0875 55.5125 20.9875 55.5125 21.975C55.5125 24.675 55.0125 27.7 53.4875 31.5L45.3625 54.9875C53.275 50.375 58.5875 41.8125 58.5875 32C58.5875 27.375 57.4125 23.025 55.3375 19.2375V19.2375ZM63 32C63 49.1 49.0875 63 32 63C14.9 63 1 49.0875 1 32C1 14.9 14.9 1 32 1C49.0875 1 63 14.9 63 32ZM61.575 32C61.575 15.6875 48.3 2.425 32 2.425C15.6875 2.425 2.425 15.6875 2.425 32C2.425 48.3125 15.7 61.575 32 61.575C48.3125 61.575 61.575 48.3125 61.575 32Z" fill="black"/>
</svg>
